<svg xmlns="http://www.w3.org/2000/svg" viewBox="0 0 1200 500" width="1200" height="500">
  <defs>
    <linearGradient id="bgGrad" x1="0%" y1="0%" x2="100%" y2="100%">
      <stop offset="0%" stop-color="#0a0e17"/>
      <stop offset="50%" stop-color="#0d1220"/>
      <stop offset="100%" stop-color="#0a0e17"/>
    </linearGradient>
    <linearGradient id="planGrad" x1="0%" y1="0%" x2="0%" y2="100%">
      <stop offset="0%" stop-color="#00BFFF" stop-opacity="0.25"/>
      <stop offset="100%" stop-color="#00BFFF" stop-opacity="0.08"/>
    </linearGradient>
    <linearGradient id="teamGrad" x1="0%" y1="0%" x2="0%" y2="100%">
      <stop offset="0%" stop-color="#003366" stop-opacity="0.35"/>
      <stop offset="100%" stop-color="#003366" stop-opacity="0.10"/>
    </linearGradient>
    <linearGradient id="execGrad" x1="0%" y1="0%" x2="0%" y2="100%">
      <stop offset="0%" stop-color="#FF9900" stop-opacity="0.25"/>
      <stop offset="100%" stop-color="#FF9900" stop-opacity="0.08"/>
    </linearGradient>
    <linearGradient id="evolveGrad" x1="0%" y1="0%" x2="0%" y2="100%">
      <stop offset="0%" stop-color="#9966FF" stop-opacity="0.25"/>
      <stop offset="100%" stop-color="#9966FF" stop-opacity="0.08"/>
    </linearGradient>
    <linearGradient id="reviewGrad" x1="0%" y1="0%" x2="0%" y2="100%">
      <stop offset="0%" stop-color="#FF3366" stop-opacity="0.25"/>
      <stop offset="100%" stop-color="#FF3366" stop-opacity="0.08"/>
    </linearGradient>
    <linearGradient id="observeGrad" x1="0%" y1="0%" x2="0%" y2="100%">
      <stop offset="0%" stop-color="#00CC66" stop-opacity="0.25"/>
      <stop offset="100%" stop-color="#00CC66" stop-opacity="0.08"/>
    </linearGradient>
    <linearGradient id="outputGrad" x1="0%" y1="0%" x2="0%" y2="100%">
      <stop offset="0%" stop-color="#00FF66" stop-opacity="0.30"/>
      <stop offset="100%" stop-color="#00FF66" stop-opacity="0.10"/>
    </linearGradient>
    <linearGradient id="arrowFlow1" x1="0%" y1="0%" x2="100%" y2="0%">
      <stop offset="0%" stop-color="#00BFFF" stop-opacity="0.8"/>
      <stop offset="100%" stop-color="#003366" stop-opacity="0.8"/>
    </linearGradient>
    <linearGradient id="arrowFlow2" x1="0%" y1="0%" x2="100%" y2="0%">
      <stop offset="0%" stop-color="#003366" stop-opacity="0.8"/>
      <stop offset="100%" stop-color="#FF9900" stop-opacity="0.8"/>
    </linearGradient>
    <linearGradient id="arrowFlow3" x1="0%" y1="0%" x2="100%" y2="0%">
      <stop offset="0%" stop-color="#FF9900" stop-opacity="0.8"/>
      <stop offset="100%" stop-color="#9966FF" stop-opacity="0.8"/>
    </linearGradient>
    <linearGradient id="arrowFlow4" x1="0%" y1="0%" x2="100%" y2="0%">
      <stop offset="0%" stop-color="#9966FF" stop-opacity="0.8"/>
      <stop offset="100%" stop-color="#FF3366" stop-opacity="0.8"/>
    </linearGradient>
    <linearGradient id="arrowFlow5" x1="0%" y1="0%" x2="100%" y2="0%">
      <stop offset="0%" stop-color="#FF3366" stop-opacity="0.8"/>
      <stop offset="100%" stop-color="#00CC66" stop-opacity="0.8"/>
    </linearGradient>
    <linearGradient id="arrowFlow6" x1="0%" y1="0%" x2="100%" y2="0%">
      <stop offset="0%" stop-color="#00CC66" stop-opacity="0.8"/>
      <stop offset="100%" stop-color="#00FF66" stop-opacity="0.8"/>
    </linearGradient>
    <linearGradient id="arrowInput" x1="0%" y1="0%" x2="100%" y2="0%">
      <stop offset="0%" stop-color="#FF6600" stop-opacity="0.6"/>
      <stop offset="50%" stop-color="#00BFFF" stop-opacity="0.7"/>
      <stop offset="100%" stop-color="#00BFFF" stop-opacity="0.8"/>
    </linearGradient>
    <filter id="glowOrange" x="-30%" y="-30%" width="160%" height="160%">
      <feGaussianBlur stdDeviation="4" result="blur"/>
      <feFlood flood-color="#FF6600" flood-opacity="0.6"/>
      <feComposite in2="blur" operator="in"/>
      <feMerge><feMergeNode/><feMergeNode in="SourceGraphic"/></feMerge>
    </filter>
    <filter id="glowGreen" x="-30%" y="-30%" width="160%" height="160%">
      <feGaussianBlur stdDeviation="6" result="blur"/>
      <feFlood flood-color="#00FF66" flood-opacity="0.7"/>
      <feComposite in2="blur" operator="in"/>
      <feMerge><feMergeNode/><feMergeNode in="SourceGraphic"/></feMerge>
    </filter>
    <marker id="arrowHead" markerWidth="8" markerHeight="6" refX="8" refY="3" orient="auto">
      <path d="M0,0 L8,3 L0,6" fill="none" stroke="#ffffff" stroke-width="1" stroke-opacity="0.7"/>
    </marker>
    <marker id="arrowHeadGreen" markerWidth="8" markerHeight="6" refX="8" refY="3" orient="auto">
      <path d="M0,0 L8,3 L0,6" fill="#00FF66" fill-opacity="0.9"/>
    </marker>
    <marker id="arrowHeadPink" markerWidth="6" markerHeight="5" refX="6" refY="2.5" orient="auto">
      <path d="M0,0 L6,2.5 L0,5" fill="#FF3366" fill-opacity="0.7"/>
    </marker>
    <marker id="arrowHeadApprove" markerWidth="6" markerHeight="5" refX="6" refY="2.5" orient="auto">
      <path d="M0,0 L6,2.5 L0,5" fill="#00CC66" fill-opacity="0.7"/>
    </marker>
    <pattern id="dotPattern" x="0" y="0" width="8" height="8" patternUnits="userSpaceOnUse">
      <circle cx="1" cy="1" r="0.5" fill="#ffffff" opacity="0.15"/>
    </pattern>
  </defs>

  <!-- BACKGROUND -->
  <rect width="1200" height="500" fill="url(#bgGrad)"/>
  <rect width="1200" height="500" fill="url(#dotPattern)" opacity="0.3"/>
  <line x1="30" y1="250" x2="1170" y2="250" stroke="#ffffff" stroke-opacity="0.03" stroke-width="1"/>

  <!-- TITLE -->
  <text x="600" y="32" text-anchor="middle" font-family="Segoe UI, Arial, sans-serif" font-size="16" font-weight="700" fill="#ffffff" opacity="0.85" letter-spacing="3">SUPER-GOOSE END-TO-END PIPELINE</text>
  <line x1="380" y1="40" x2="820" y2="40" stroke="#ffffff" stroke-opacity="0.1" stroke-width="1"/>

  <!-- ===== INPUT SECTION ===== -->
  <text x="63" y="145" text-anchor="middle" font-family="Segoe UI, Arial, sans-serif" font-size="10" fill="#ffffff" opacity="0.5" font-weight="600" letter-spacing="2">INPUT</text>

  <!-- Voice input -->
  <g transform="translate(35, 155)">
    <rect x="0" y="0" width="56" height="72" rx="8" fill="#0d1220" stroke="#FF6600" stroke-width="1.5" stroke-opacity="0.5"/>
    <rect x="20" y="10" width="16" height="26" rx="8" fill="none" stroke="#FF6600" stroke-width="1.5" filter="url(#glowOrange)"/>
    <path d="M15,32 Q15,48 28,48 Q41,48 41,32" fill="none" stroke="#FF6600" stroke-width="1.5"/>
    <line x1="28" y1="48" x2="28" y2="56" stroke="#FF6600" stroke-width="1.5"/>
    <line x1="20" y1="56" x2="36" y2="56" stroke="#FF6600" stroke-width="1.5"/>
    <text x="28" y="68" text-anchor="middle" font-family="Segoe UI, Arial, sans-serif" font-size="9" fill="#FF6600" font-weight="600">Voice</text>
  </g>

  <!-- Text/CLI input -->
  <g transform="translate(35, 265)">
    <rect x="0" y="0" width="56" height="72" rx="8" fill="#0d1220" stroke="#00BFFF" stroke-width="1.5" stroke-opacity="0.5"/>
    <rect x="8" y="8" width="40" height="30" rx="3" fill="none" stroke="#00BFFF" stroke-width="1.2"/>
    <text x="14" y="28" font-family="monospace" font-size="14" fill="#00BFFF" font-weight="700">&gt;_</text>
    <rect x="30" y="19" width="8" height="2" fill="#00BFFF" opacity="0.6"/>
    <text x="28" y="55" text-anchor="middle" font-family="Segoe UI, Arial, sans-serif" font-size="8" fill="#00BFFF" font-weight="600">Text / CLI</text>
  </g>

  <!-- ARROWS FROM INPUTS TO PLAN -->
  <path d="M95,191 C120,191 125,210 145,218" fill="none" stroke="url(#arrowInput)" stroke-width="1.8" marker-end="url(#arrowHead)" opacity="0.8"/>
  <circle r="1.5" fill="#FF6600" opacity="0.7">
    <animateMotion dur="2s" repeatCount="indefinite" path="M95,191 C120,191 125,210 145,218"/>
  </circle>
  <circle r="1" fill="#FF6600" opacity="0.5">
    <animateMotion dur="2s" repeatCount="indefinite" begin="0.7s" path="M95,191 C120,191 125,210 145,218"/>
  </circle>
  <path d="M95,295 C120,295 125,275 145,262" fill="none" stroke="url(#arrowInput)" stroke-width="1.8" marker-end="url(#arrowHead)" opacity="0.8"/>
  <circle r="1.5" fill="#00BFFF" opacity="0.7">
    <animateMotion dur="2.2s" repeatCount="indefinite" path="M95,295 C120,295 125,275 145,262"/>
  </circle>
  <circle r="1" fill="#00BFFF" opacity="0.5">
    <animateMotion dur="2.2s" repeatCount="indefinite" begin="0.8s" path="M95,295 C120,295 125,275 145,262"/>
  </circle>

  <!-- ===== STAGE 1: PLAN ===== -->
  <g transform="translate(148, 140)">
    <rect x="0" y="0" width="130" height="200" rx="10" fill="url(#planGrad)" stroke="#00BFFF" stroke-width="1.2" stroke-opacity="0.4"/>
    <rect x="0" y="0" width="130" height="28" rx="10" fill="#00BFFF" fill-opacity="0.2"/>
    <rect x="0" y="14" width="130" height="14" fill="#00BFFF" fill-opacity="0.2"/>
    <text x="65" y="19" text-anchor="middle" font-family="Segoe UI, Arial, sans-serif" font-size="10" fill="#00BFFF" font-weight="700" letter-spacing="2">PLAN</text>
    <circle cx="18" cy="14" r="8" fill="#00BFFF" fill-opacity="0.15" stroke="#00BFFF" stroke-width="0.8"/>
    <text x="18" y="17.5" text-anchor="middle" font-family="Segoe UI, Arial, sans-serif" font-size="9" fill="#00BFFF" font-weight="700">1</text>
    <g transform="translate(40, 50)">
      <circle cx="25" cy="20" r="18" fill="none" stroke="#00BFFF" stroke-width="1" opacity="0.4"/>
      <path d="M16,15 Q20,8 28,10 Q36,8 38,16 Q42,22 36,28 Q32,34 25,34 Q18,34 14,28 Q10,22 16,15Z" fill="none" stroke="#00BFFF" stroke-width="1.2" opacity="0.6"/>
      <circle cx="22" cy="18" r="2" fill="#00BFFF" opacity="0.5"/>
      <circle cx="30" cy="16" r="2" fill="#00BFFF" opacity="0.5"/>
      <circle cx="26" cy="25" r="2" fill="#00BFFF" opacity="0.5"/>
      <line x1="22" y1="18" x2="30" y2="16" stroke="#00BFFF" stroke-width="0.8" opacity="0.4"/>
      <line x1="22" y1="18" x2="26" y2="25" stroke="#00BFFF" stroke-width="0.8" opacity="0.4"/>
      <line x1="30" y1="16" x2="26" y2="25" stroke="#00BFFF" stroke-width="0.8" opacity="0.4"/>
    </g>
    <text x="65" y="105" text-anchor="middle" font-family="Segoe UI, Arial, sans-serif" font-size="10" fill="#ffffff" font-weight="600" opacity="0.9">Planner &amp;</text>
    <text x="65" y="118" text-anchor="middle" font-family="Segoe UI, Arial, sans-serif" font-size="10" fill="#ffffff" font-weight="600" opacity="0.9">Orchestrator</text>
    <line x1="20" y1="130" x2="110" y2="130" stroke="#00BFFF" stroke-opacity="0.15" stroke-width="1"/>
    <text x="65" y="150" text-anchor="middle" font-family="Segoe UI, Arial, sans-serif" font-size="8" fill="#00BFFF" opacity="0.6" font-style="italic">Task decomposition</text>
    <g transform="translate(25, 158)" opacity="0.4">
      <rect x="0" y="0" width="80" height="6" rx="3" fill="#00BFFF" opacity="0.3"/>
      <rect x="0" y="0" width="55" height="6" rx="3" fill="#00BFFF" opacity="0.5"/>
      <rect x="0" y="10" width="80" height="6" rx="3" fill="#00BFFF" opacity="0.3"/>
      <rect x="0" y="10" width="35" height="6" rx="3" fill="#00BFFF" opacity="0.5"/>
      <rect x="0" y="20" width="80" height="6" rx="3" fill="#00BFFF" opacity="0.3"/>
      <rect x="0" y="20" width="68" height="6" rx="3" fill="#00BFFF" opacity="0.5"/>
    </g>
  </g>

  <!-- ARROW: PLAN -> TEAM -->
  <path d="M282,240 C302,240 308,240 318,240" fill="none" stroke="url(#arrowFlow1)" stroke-width="2" marker-end="url(#arrowHead)" opacity="0.7"/>
  <circle r="1.5" fill="#00BFFF" opacity="0.6">
    <animateMotion dur="1.5s" repeatCount="indefinite" path="M282,240 C302,240 308,240 318,240"/>
  </circle>

  <!-- ===== STAGE 2: TEAM ===== -->
  <g transform="translate(320, 140)">
    <rect x="0" y="0" width="145" height="200" rx="10" fill="url(#teamGrad)" stroke="#336699" stroke-width="1.2" stroke-opacity="0.4"/>
    <rect x="0" y="0" width="145" height="28" rx="10" fill="#003366" fill-opacity="0.35"/>
    <rect x="0" y="14" width="145" height="14" fill="#003366" fill-opacity="0.35"/>
    <text x="72" y="19" text-anchor="middle" font-family="Segoe UI, Arial, sans-serif" font-size="10" fill="#6699CC" font-weight="700" letter-spacing="2">TEAM</text>
    <circle cx="18" cy="14" r="8" fill="#003366" fill-opacity="0.3" stroke="#6699CC" stroke-width="0.8"/>
    <text x="18" y="17.5" text-anchor="middle" font-family="Segoe UI, Arial, sans-serif" font-size="9" fill="#6699CC" font-weight="700">2</text>
    <g transform="translate(10, 40)">
      <g transform="translate(0, 0)">
        <circle cx="12" cy="10" r="6" fill="none" stroke="#4488BB" stroke-width="1"/>
        <path d="M4,24 Q12,18 20,24" fill="none" stroke="#4488BB" stroke-width="1"/>
        <polygon points="12,2 8,8 16,8" fill="none" stroke="#4488BB" stroke-width="0.7" opacity="0.6"/>
        <text x="12" y="36" text-anchor="middle" font-family="Segoe UI, Arial, sans-serif" font-size="6" fill="#6699CC" opacity="0.8">Arch</text>
      </g>
      <g transform="translate(26, 0)">
        <circle cx="12" cy="10" r="6" fill="none" stroke="#4488BB" stroke-width="1"/>
        <path d="M4,24 Q12,18 20,24" fill="none" stroke="#4488BB" stroke-width="1"/>
        <text x="12" y="36" text-anchor="middle" font-family="Segoe UI, Arial, sans-serif" font-size="6" fill="#6699CC" opacity="0.8">Dev</text>
      </g>
      <g transform="translate(52, 0)">
        <circle cx="12" cy="10" r="6" fill="none" stroke="#4488BB" stroke-width="1"/>
        <path d="M4,24 Q12,18 20,24" fill="none" stroke="#4488BB" stroke-width="1"/>
        <path d="M8,10 L11,14 L17,6" fill="none" stroke="#00CC66" stroke-width="0.8" opacity="0.6"/>
        <text x="12" y="36" text-anchor="middle" font-family="Segoe UI, Arial, sans-serif" font-size="6" fill="#6699CC" opacity="0.8">QA</text>
      </g>
      <g transform="translate(78, 0)">
        <circle cx="12" cy="10" r="6" fill="none" stroke="#4488BB" stroke-width="1"/>
        <path d="M4,24 Q12,18 20,24" fill="none" stroke="#4488BB" stroke-width="1"/>
        <rect x="9" y="8" width="6" height="5" rx="1" fill="none" stroke="#FF9900" stroke-width="0.7" opacity="0.6"/>
        <text x="12" y="36" text-anchor="middle" font-family="Segoe UI, Arial, sans-serif" font-size="6" fill="#6699CC" opacity="0.8">Sec</text>
      </g>
      <g transform="translate(104, 0)">
        <circle cx="12" cy="10" r="6" fill="none" stroke="#4488BB" stroke-width="1"/>
        <path d="M4,24 Q12,18 20,24" fill="none" stroke="#4488BB" stroke-width="1"/>
        <path d="M12,5 L10,11 L14,11Z" fill="none" stroke="#FF6600" stroke-width="0.7" opacity="0.6"/>
        <text x="12" y="36" text-anchor="middle" font-family="Segoe UI, Arial, sans-serif" font-size="6" fill="#6699CC" opacity="0.8">Deploy</text>
      </g>
    </g>
    <text x="72" y="100" text-anchor="middle" font-family="Segoe UI, Arial, sans-serif" font-size="9" fill="#ffffff" font-weight="600" opacity="0.9">ALMAS 5-Agent Team</text>
    <line x1="20" y1="112" x2="125" y2="112" stroke="#6699CC" stroke-opacity="0.15" stroke-width="1"/>
    <g transform="translate(42, 120)">
      <path d="M30,5 L50,12 L50,30 Q50,45 30,52 Q10,45 10,30 L10,12Z" fill="none" stroke="#6699CC" stroke-width="1.2" opacity="0.35" transform="scale(0.7)"/>
      <path d="M18,22 L24,28 L35,16" fill="none" stroke="#00CC66" stroke-width="1.2" opacity="0.5" transform="scale(0.7)"/>
    </g>
    <text x="72" y="162" text-anchor="middle" font-family="Segoe UI, Arial, sans-serif" font-size="8" fill="#6699CC" opacity="0.5" font-style="italic">RBAC Enforced</text>
    <g opacity="0.15">
      <line x1="22" y1="55" x2="48" y2="55" stroke="#4488BB" stroke-width="0.5" stroke-dasharray="2,2"/>
      <line x1="48" y1="55" x2="74" y2="55" stroke="#4488BB" stroke-width="0.5" stroke-dasharray="2,2"/>
      <line x1="74" y1="55" x2="100" y2="55" stroke="#4488BB" stroke-width="0.5" stroke-dasharray="2,2"/>
      <line x1="100" y1="55" x2="126" y2="55" stroke="#4488BB" stroke-width="0.5" stroke-dasharray="2,2"/>
    </g>
  </g>

  <!-- ARROW: TEAM -> EXECUTE -->
  <path d="M468,240 C488,235 498,232 508,230" fill="none" stroke="url(#arrowFlow2)" stroke-width="2" marker-end="url(#arrowHead)" opacity="0.7"/>
  <circle r="1.5" fill="#FF9900" opacity="0.6">
    <animateMotion dur="1.4s" repeatCount="indefinite" path="M468,240 C488,235 498,232 508,230"/>
  </circle>

  <!-- ===== STAGE 3: EXECUTE ===== -->
  <g transform="translate(510, 140)">
    <rect x="0" y="0" width="120" height="200" rx="10" fill="url(#execGrad)" stroke="#FF9900" stroke-width="1.2" stroke-opacity="0.4"/>
    <rect x="0" y="0" width="120" height="28" rx="10" fill="#FF9900" fill-opacity="0.2"/>
    <rect x="0" y="14" width="120" height="14" fill="#FF9900" fill-opacity="0.2"/>
    <text x="60" y="19" text-anchor="middle" font-family="Segoe UI, Arial, sans-serif" font-size="10" fill="#FF9900" font-weight="700" letter-spacing="2">EXECUTE</text>
    <circle cx="18" cy="14" r="8" fill="#FF9900" fill-opacity="0.15" stroke="#FF9900" stroke-width="0.8"/>
    <text x="18" y="17.5" text-anchor="middle" font-family="Segoe UI, Arial, sans-serif" font-size="9" fill="#FF9900" font-weight="700">3</text>
    <g transform="translate(12, 42)">
      <rect x="0" y="0" width="96" height="50" rx="5" fill="#0d1220" stroke="#FF9900" stroke-width="0.8" stroke-opacity="0.4"/>
      <g opacity="0.3">
        <circle cx="12" cy="12" r="2" fill="#FF9900"/><circle cx="24" cy="12" r="2" fill="#FF9900"/>
        <circle cx="36" cy="12" r="2" fill="#FF9900"/><circle cx="48" cy="12" r="2" fill="#FF9900"/>
        <circle cx="12" cy="24" r="2" fill="#FF9900"/><circle cx="24" cy="24" r="2" fill="#FF9900"/>
        <circle cx="36" cy="24" r="2" fill="#FF9900"/><circle cx="48" cy="24" r="2" fill="#FF9900"/>
        <circle cx="12" cy="36" r="2" fill="#FF9900"/><circle cx="24" cy="36" r="2" fill="#FF9900"/>
        <circle cx="36" cy="36" r="2" fill="#FF9900"/><circle cx="48" cy="36" r="2" fill="#FF9900"/>
      </g>
      <g transform="translate(58, 8)">
        <rect x="0" y="0" width="30" height="22" rx="2" fill="none" stroke="#FF9900" stroke-width="0.8" opacity="0.5"/>
        <rect x="4" y="4" width="22" height="14" rx="1" fill="none" stroke="#FF9900" stroke-width="0.5" opacity="0.4"/>
        <line x1="4" y1="11" x2="26" y2="11" stroke="#FF9900" stroke-width="0.5" opacity="0.3"/>
      </g>
    </g>
    <text x="60" y="108" text-anchor="middle" font-family="Segoe UI, Arial, sans-serif" font-size="9" fill="#ffffff" font-weight="600" opacity="0.9">microsandbox</text>
    <text x="60" y="121" text-anchor="middle" font-family="Segoe UI, Arial, sans-serif" font-size="9" fill="#ffffff" font-weight="600" opacity="0.9">MicroVM</text>
    <line x1="15" y1="132" x2="105" y2="132" stroke="#FF9900" stroke-opacity="0.15" stroke-width="1"/>
    <rect x="20" y="140" width="80" height="18" rx="9" fill="#FF9900" fill-opacity="0.1" stroke="#FF9900" stroke-width="0.6" stroke-opacity="0.3"/>
    <text x="60" y="153" text-anchor="middle" font-family="monospace" font-size="8" fill="#FF9900" opacity="0.7">&lt;200ms boot</text>
    <g transform="translate(25, 168)">
      <rect x="0" y="4" width="16" height="11" rx="2" fill="none" stroke="#FF9900" stroke-width="0.8" opacity="0.4"/>
      <circle cx="8" cy="10" r="3" fill="none" stroke="#FF9900" stroke-width="0.7" opacity="0.4"/>
      <rect x="4" y="2" width="8" height="4" rx="1" fill="none" stroke="#FF9900" stroke-width="0.5" opacity="0.3"/>
      <text x="22" y="13" font-family="Segoe UI, Arial, sans-serif" font-size="7" fill="#FF9900" opacity="0.5">Arrakis</text>
    </g>
  </g>

  <!-- ARROW: EXECUTE -> EVOLVE -->
  <path d="M633,240 C653,238 663,237 673,237" fill="none" stroke="url(#arrowFlow3)" stroke-width="2" marker-end="url(#arrowHead)" opacity="0.7"/>
  <circle r="1.5" fill="#9966FF" opacity="0.6">
    <animateMotion dur="1.3s" repeatCount="indefinite" path="M633,240 C653,238 663,237 673,237"/>
  </circle>

  <!-- ===== STAGE 4: EVOLVE ===== -->
  <g transform="translate(675, 140)">
    <rect x="0" y="0" width="120" height="200" rx="10" fill="url(#evolveGrad)" stroke="#9966FF" stroke-width="1.2" stroke-opacity="0.4"/>
    <rect x="0" y="0" width="120" height="28" rx="10" fill="#9966FF" fill-opacity="0.2"/>
    <rect x="0" y="14" width="120" height="14" fill="#9966FF" fill-opacity="0.2"/>
    <text x="60" y="19" text-anchor="middle" font-family="Segoe UI, Arial, sans-serif" font-size="10" fill="#9966FF" font-weight="700" letter-spacing="2">EVOLVE</text>
    <circle cx="18" cy="14" r="8" fill="#9966FF" fill-opacity="0.15" stroke="#9966FF" stroke-width="0.8"/>
    <text x="18" y="17.5" text-anchor="middle" font-family="Segoe UI, Arial, sans-serif" font-size="9" fill="#9966FF" font-weight="700">4</text>
    <g transform="translate(10, 42)">
      <rect x="0" y="0" width="96" height="20" rx="10" fill="#9966FF" fill-opacity="0.12" stroke="#9966FF" stroke-width="0.7" stroke-opacity="0.4"/>
      <text x="48" y="14" text-anchor="middle" font-family="monospace" font-size="9" fill="#BB99FF" font-weight="600">DSPy</text>
      <rect x="0" y="26" width="96" height="20" rx="10" fill="#9966FF" fill-opacity="0.12" stroke="#9966FF" stroke-width="0.7" stroke-opacity="0.4"/>
      <text x="48" y="40" text-anchor="middle" font-family="monospace" font-size="9" fill="#BB99FF" font-weight="600">Mem0</text>
      <rect x="0" y="52" width="96" height="20" rx="10" fill="#9966FF" fill-opacity="0.12" stroke="#9966FF" stroke-width="0.7" stroke-opacity="0.4"/>
      <text x="48" y="66" text-anchor="middle" font-family="monospace" font-size="9" fill="#BB99FF" font-weight="600">Inspect AI</text>
    </g>
    <text x="60" y="130" text-anchor="middle" font-family="Segoe UI, Arial, sans-serif" font-size="9" fill="#ffffff" font-weight="600" opacity="0.9">Self-Evolution</text>
    <text x="60" y="143" text-anchor="middle" font-family="Segoe UI, Arial, sans-serif" font-size="9" fill="#ffffff" font-weight="600" opacity="0.9">Engine</text>
    <line x1="15" y1="153" x2="105" y2="153" stroke="#9966FF" stroke-opacity="0.15" stroke-width="1"/>
    <g transform="translate(15, 162)">
      <path d="M12,6 Q6,6 6,12 Q6,18 12,18 Q9,15 9,12 Q9,9 12,6Z" fill="#9966FF" fill-opacity="0.3" stroke="#9966FF" stroke-width="0.7" opacity="0.5"/>
      <circle cx="16" cy="7" r="1" fill="#9966FF" opacity="0.3"/>
      <circle cx="20" cy="10" r="0.7" fill="#9966FF" opacity="0.25"/>
    </g>
    <text x="60" y="178" text-anchor="middle" font-family="Segoe UI, Arial, sans-serif" font-size="7.5" fill="#9966FF" opacity="0.55" font-style="italic">Prompts optimize</text>
    <text x="60" y="189" text-anchor="middle" font-family="Segoe UI, Arial, sans-serif" font-size="7.5" fill="#9966FF" opacity="0.55" font-style="italic">overnight</text>
  </g>

  <!-- ARROW: EVOLVE -> REVIEW -->
  <path d="M798,240 C818,242 828,243 838,243" fill="none" stroke="url(#arrowFlow4)" stroke-width="2" marker-end="url(#arrowHead)" opacity="0.7"/>
  <circle r="1.5" fill="#FF3366" opacity="0.6">
    <animateMotion dur="1.3s" repeatCount="indefinite" path="M798,240 C818,242 828,243 838,243"/>
  </circle>

  <!-- ===== STAGE 5: REVIEW ===== -->
  <g transform="translate(840, 140)">
    <rect x="0" y="0" width="120" height="200" rx="10" fill="url(#reviewGrad)" stroke="#FF3366" stroke-width="1.2" stroke-opacity="0.4"/>
    <rect x="0" y="0" width="120" height="28" rx="10" fill="#FF3366" fill-opacity="0.2"/>
    <rect x="0" y="14" width="120" height="14" fill="#FF3366" fill-opacity="0.2"/>
    <text x="60" y="19" text-anchor="middle" font-family="Segoe UI, Arial, sans-serif" font-size="10" fill="#FF3366" font-weight="700" letter-spacing="2">REVIEW</text>
    <circle cx="18" cy="14" r="8" fill="#FF3366" fill-opacity="0.15" stroke="#FF3366" stroke-width="0.8"/>
    <text x="18" y="17.5" text-anchor="middle" font-family="Segoe UI, Arial, sans-serif" font-size="9" fill="#FF3366" font-weight="700">5</text>
    <g transform="translate(14, 38)">
      <circle cx="30" cy="25" r="22" fill="#FF3366" fill-opacity="0.08" stroke="#FF3366" stroke-width="1" stroke-opacity="0.5"/>
      <text x="22" y="28" text-anchor="middle" font-family="Segoe UI, Arial, sans-serif" font-size="8" fill="#FF6688" font-weight="600" opacity="0.8">Player</text>
      <circle cx="62" cy="25" r="22" fill="#FF3366" fill-opacity="0.08" stroke="#FF3366" stroke-width="1" stroke-opacity="0.5"/>
      <text x="70" y="28" text-anchor="middle" font-family="Segoe UI, Arial, sans-serif" font-size="8" fill="#FF6688" font-weight="600" opacity="0.8">Coach</text>
      <ellipse cx="46" cy="25" rx="6" ry="16" fill="#FF3366" fill-opacity="0.06"/>
    </g>
    <g transform="translate(20, 88)">
      <path d="M10,8 Q45,-5 80,8" fill="none" stroke="#00CC66" stroke-width="1" marker-end="url(#arrowHeadApprove)" opacity="0.5"/>
      <text x="45" y="4" text-anchor="middle" font-family="Segoe UI, Arial, sans-serif" font-size="6" fill="#00CC66" opacity="0.6">approve</text>
      <path d="M80,20 Q45,33 10,20" fill="none" stroke="#FF3366" stroke-width="1" marker-end="url(#arrowHeadPink)" opacity="0.5"/>
      <text x="45" y="32" text-anchor="middle" font-family="Segoe UI, Arial, sans-serif" font-size="6" fill="#FF3366" opacity="0.6">reject</text>
    </g>
    <line x1="15" y1="130" x2="105" y2="130" stroke="#FF3366" stroke-opacity="0.15" stroke-width="1"/>
    <g transform="translate(8, 138)">
      <rect x="0" y="0" width="34" height="14" rx="7" fill="#FF3366" fill-opacity="0.1" stroke="#FF3366" stroke-width="0.5" stroke-opacity="0.3"/>
      <text x="17" y="10" text-anchor="middle" font-family="monospace" font-size="6" fill="#FF6688" opacity="0.7">ast-grep</text>
      <rect x="38" y="0" width="34" height="14" rx="7" fill="#FF3366" fill-opacity="0.1" stroke="#FF3366" stroke-width="0.5" stroke-opacity="0.3"/>
      <text x="55" y="10" text-anchor="middle" font-family="monospace" font-size="6" fill="#FF6688" opacity="0.7">Semgrep</text>
      <rect x="76" y="0" width="36" height="14" rx="7" fill="#FF3366" fill-opacity="0.1" stroke="#FF3366" stroke-width="0.5" stroke-opacity="0.3"/>
      <text x="94" y="10" text-anchor="middle" font-family="monospace" font-size="6" fill="#FF6688" opacity="0.7">CrossHair</text>
    </g>
    <g transform="translate(48, 165)" opacity="0.3">
      <circle cx="12" cy="12" r="8" fill="none" stroke="#FF3366" stroke-width="0.8"/>
      <circle cx="12" cy="12" r="4" fill="none" stroke="#FF3366" stroke-width="0.6"/>
      <line x1="12" y1="2" x2="12" y2="7" stroke="#FF3366" stroke-width="0.6"/>
      <line x1="12" y1="17" x2="12" y2="22" stroke="#FF3366" stroke-width="0.6"/>
      <line x1="2" y1="12" x2="7" y2="12" stroke="#FF3366" stroke-width="0.6"/>
      <line x1="17" y1="12" x2="22" y2="12" stroke="#FF3366" stroke-width="0.6"/>
    </g>
  </g>

  <!-- ARROW: REVIEW -> OBSERVE -->
  <path d="M963,240 C978,238 988,236 998,235" fill="none" stroke="url(#arrowFlow5)" stroke-width="2" marker-end="url(#arrowHead)" opacity="0.7"/>
  <circle r="1.5" fill="#00CC66" opacity="0.6">
    <animateMotion dur="1.2s" repeatCount="indefinite" path="M963,240 C978,238 988,236 998,235"/>
  </circle>

  <!-- ===== STAGE 6: OBSERVE ===== -->
  <g transform="translate(1000, 155)">
    <rect x="0" y="0" width="80" height="170" rx="10" fill="url(#observeGrad)" stroke="#00CC66" stroke-width="1.2" stroke-opacity="0.4"/>
    <rect x="0" y="0" width="80" height="28" rx="10" fill="#00CC66" fill-opacity="0.2"/>
    <rect x="0" y="14" width="80" height="14" fill="#00CC66" fill-opacity="0.2"/>
    <text x="40" y="19" text-anchor="middle" font-family="Segoe UI, Arial, sans-serif" font-size="9" fill="#00CC66" font-weight="700" letter-spacing="2">OBSERVE</text>
    <circle cx="15" cy="14" r="8" fill="#00CC66" fill-opacity="0.15" stroke="#00CC66" stroke-width="0.8"/>
    <text x="15" y="17.5" text-anchor="middle" font-family="Segoe UI, Arial, sans-serif" font-size="9" fill="#00CC66" font-weight="700">6</text>
    <g transform="translate(12, 38)">
      <polyline points="0,30 8,20 16,25 24,10 32,18 40,5 48,15 56,8" fill="none" stroke="#00CC66" stroke-width="1.2" opacity="0.5"/>
      <polyline points="0,35 8,32 16,38 24,28 32,33 40,22 48,28 56,20" fill="none" stroke="#00CC66" stroke-width="0.8" opacity="0.3"/>
      <circle cx="24" cy="10" r="2" fill="#00CC66" opacity="0.6"/>
      <circle cx="40" cy="5" r="2" fill="#00CC66" opacity="0.6"/>
      <circle cx="56" cy="8" r="2" fill="#00CC66" opacity="0.6"/>
    </g>
    <g transform="translate(22, 88)">
      <ellipse cx="18" cy="10" rx="16" ry="8" fill="none" stroke="#00CC66" stroke-width="1" opacity="0.4"/>
      <circle cx="18" cy="10" r="4" fill="none" stroke="#00CC66" stroke-width="0.8" opacity="0.5"/>
      <circle cx="18" cy="10" r="1.5" fill="#00CC66" opacity="0.4"/>
    </g>
    <text x="40" y="120" text-anchor="middle" font-family="Segoe UI, Arial, sans-serif" font-size="8" fill="#ffffff" font-weight="600" opacity="0.85">Full</text>
    <text x="40" y="132" text-anchor="middle" font-family="Segoe UI, Arial, sans-serif" font-size="8" fill="#ffffff" font-weight="600" opacity="0.85">Observability</text>
    <line x1="10" y1="140" x2="70" y2="140" stroke="#00CC66" stroke-opacity="0.15" stroke-width="1"/>
    <text x="40" y="155" text-anchor="middle" font-family="monospace" font-size="7" fill="#00CC66" opacity="0.5">Langfuse</text>
    <text x="40" y="164" text-anchor="middle" font-family="monospace" font-size="7" fill="#00CC66" opacity="0.5">traces</text>
  </g>

  <!-- ARROW: OBSERVE -> OUTPUT -->
  <path d="M1083,240 C1098,240 1105,240 1110,240" fill="none" stroke="url(#arrowFlow6)" stroke-width="2" marker-end="url(#arrowHeadGreen)" opacity="0.8"/>
  <circle r="2" fill="#00FF66" opacity="0.7">
    <animateMotion dur="1s" repeatCount="indefinite" path="M1083,240 C1098,240 1105,240 1110,240"/>
  </circle>

  <!-- ===== OUTPUT ===== -->
  <text x="1144" y="145" text-anchor="middle" font-family="Segoe UI, Arial, sans-serif" font-size="10" fill="#ffffff" opacity="0.5" font-weight="600" letter-spacing="2">OUTPUT</text>
  <g transform="translate(1112, 175)">
    <rect x="-4" y="-4" width="72" height="138" rx="14" fill="#00FF66" fill-opacity="0.04" filter="url(#glowGreen)"/>
    <rect x="0" y="0" width="64" height="130" rx="10" fill="url(#outputGrad)" stroke="#00FF66" stroke-width="1.5" stroke-opacity="0.6"/>
    <rect x="0" y="0" width="64" height="130" rx="10" fill="none" stroke="#00FF66" stroke-width="1" stroke-opacity="0.3">
      <animate attributeName="stroke-opacity" values="0.3;0.7;0.3" dur="2s" repeatCount="indefinite"/>
    </rect>
    <g transform="translate(16, 12)">
      <circle cx="16" cy="16" r="14" fill="#00FF66" fill-opacity="0.1" stroke="#00FF66" stroke-width="1.2" opacity="0.6"/>
      <path d="M8,16 L14,22 L24,10" fill="none" stroke="#00FF66" stroke-width="2" opacity="0.8"/>
    </g>
    <text x="32" y="52" text-anchor="middle" font-family="Segoe UI, Arial, sans-serif" font-size="8" fill="#00FF66" font-weight="700" opacity="0.9">Production</text>
    <text x="32" y="63" text-anchor="middle" font-family="Segoe UI, Arial, sans-serif" font-size="8" fill="#00FF66" font-weight="700" opacity="0.9">Ready</text>
    <text x="32" y="74" text-anchor="middle" font-family="Segoe UI, Arial, sans-serif" font-size="8" fill="#00FF66" font-weight="700" opacity="0.9">Code</text>
    <line x1="10" y1="82" x2="54" y2="82" stroke="#00FF66" stroke-opacity="0.2" stroke-width="1"/>
    <g transform="translate(10, 88)">
      <circle cx="10" cy="8" r="3" fill="none" stroke="#00FF66" stroke-width="0.8" opacity="0.5"/>
      <circle cx="10" cy="28" r="3" fill="none" stroke="#00FF66" stroke-width="0.8" opacity="0.5"/>
      <circle cx="26" cy="18" r="3" fill="none" stroke="#00FF66" stroke-width="0.8" opacity="0.5"/>
      <line x1="10" y1="11" x2="10" y2="25" stroke="#00FF66" stroke-width="0.8" opacity="0.4"/>
      <path d="M10,14 Q10,18 23,18" fill="none" stroke="#00FF66" stroke-width="0.8" opacity="0.4"/>
    </g>
    <text x="32" y="108" text-anchor="middle" font-family="Segoe UI, Arial, sans-serif" font-size="7" fill="#00FF66" opacity="0.6">Auto PR</text>
    <text x="32" y="118" text-anchor="middle" font-family="Segoe UI, Arial, sans-serif" font-size="7" fill="#00FF66" opacity="0.6">Review</text>
  </g>

  <!-- BOTTOM FLOW LINE -->
  <path d="M63,380 C200,395 400,390 600,385 C800,380 1000,388 1144,375" fill="none" stroke="#ffffff" stroke-width="0.5" stroke-opacity="0.06" stroke-dasharray="4,8"/>

  <!-- AMBIENT PARTICLES -->
  <g opacity="0.15">
    <circle cx="120" cy="420" r="1" fill="#00BFFF"><animate attributeName="opacity" values="0.1;0.4;0.1" dur="3s" repeatCount="indefinite"/></circle>
    <circle cx="350" cy="400" r="0.8" fill="#003366"><animate attributeName="opacity" values="0.1;0.3;0.1" dur="4s" repeatCount="indefinite"/></circle>
    <circle cx="550" cy="430" r="1.2" fill="#FF9900"><animate attributeName="opacity" values="0.1;0.4;0.1" dur="3.5s" repeatCount="indefinite"/></circle>
    <circle cx="750" cy="410" r="0.7" fill="#9966FF"><animate attributeName="opacity" values="0.15;0.35;0.15" dur="2.8s" repeatCount="indefinite"/></circle>
    <circle cx="920" cy="425" r="1" fill="#FF3366"><animate attributeName="opacity" values="0.1;0.3;0.1" dur="3.2s" repeatCount="indefinite"/></circle>
    <circle cx="1060" cy="400" r="0.9" fill="#00CC66"><animate attributeName="opacity" values="0.1;0.4;0.1" dur="2.5s" repeatCount="indefinite"/></circle>
    <circle cx="200" cy="100" r="0.6" fill="#00BFFF"><animate attributeName="opacity" values="0.05;0.25;0.05" dur="4s" repeatCount="indefinite" begin="1s"/></circle>
    <circle cx="500" cy="90" r="0.8" fill="#FF9900"><animate attributeName="opacity" values="0.05;0.2;0.05" dur="3.5s" repeatCount="indefinite" begin="0.5s"/></circle>
    <circle cx="800" cy="110" r="0.7" fill="#9966FF"><animate attributeName="opacity" values="0.1;0.3;0.1" dur="3s" repeatCount="indefinite" begin="1.5s"/></circle>
    <circle cx="1050" cy="95" r="0.5" fill="#00FF66"><animate attributeName="opacity" values="0.05;0.25;0.05" dur="4.5s" repeatCount="indefinite"/></circle>
  </g>

  <!-- STAGE LABELS BOTTOM -->
  <g opacity="0.35">
    <text x="213" y="365" text-anchor="middle" font-family="Segoe UI, Arial, sans-serif" font-size="7" fill="#00BFFF" letter-spacing="1">STAGE 1</text>
    <text x="392" y="365" text-anchor="middle" font-family="Segoe UI, Arial, sans-serif" font-size="7" fill="#6699CC" letter-spacing="1">STAGE 2</text>
    <text x="570" y="365" text-anchor="middle" font-family="Segoe UI, Arial, sans-serif" font-size="7" fill="#FF9900" letter-spacing="1">STAGE 3</text>
    <text x="735" y="365" text-anchor="middle" font-family="Segoe UI, Arial, sans-serif" font-size="7" fill="#9966FF" letter-spacing="1">STAGE 4</text>
    <text x="900" y="365" text-anchor="middle" font-family="Segoe UI, Arial, sans-serif" font-size="7" fill="#FF3366" letter-spacing="1">STAGE 5</text>
    <text x="1040" y="365" text-anchor="middle" font-family="Segoe UI, Arial, sans-serif" font-size="7" fill="#00CC66" letter-spacing="1">STAGE 6</text>
  </g>

  <!-- FOOTER -->
  <text x="600" y="470" text-anchor="middle" font-family="Segoe UI, Arial, sans-serif" font-size="9" fill="#ffffff" opacity="0.2" letter-spacing="1">Super-Goose  |  From Request to Production-Ready Code</text>
  <text x="600" y="485" text-anchor="middle" font-family="Segoe UI, Arial, sans-serif" font-size="7" fill="#ffffff" opacity="0.12">github.com/Ghenghis/Super-Goose</text>
</svg>