<svg xmlns="http://www.w3.org/2000/svg" viewBox="0 0 1100 500" width="1100" height="500">
  <defs>
    <linearGradient id="bgGrad" x1="0" y1="0" x2="1" y2="1">
      <stop offset="0%" stop-color="#0d1117"/>
      <stop offset="100%" stop-color="#161b22"/>
    </linearGradient>
    <linearGradient id="pinkGlow" x1="0" y1="0" x2="0" y2="1">
      <stop offset="0%" stop-color="#FF3366" stop-opacity="0.25"/>
      <stop offset="100%" stop-color="#FF3366" stop-opacity="0.05"/>
    </linearGradient>
    <linearGradient id="blueGlow" x1="0" y1="0" x2="0" y2="1">
      <stop offset="0%" stop-color="#00BFFF" stop-opacity="0.2"/>
      <stop offset="100%" stop-color="#00BFFF" stop-opacity="0.05"/>
    </linearGradient>
    <linearGradient id="purpleGlow" x1="0" y1="0" x2="0" y2="1">
      <stop offset="0%" stop-color="#9966FF" stop-opacity="0.2"/>
      <stop offset="100%" stop-color="#9966FF" stop-opacity="0.05"/>
    </linearGradient>
    <linearGradient id="greenGlow" x1="0" y1="0" x2="0" y2="1">
      <stop offset="0%" stop-color="#00CC66" stop-opacity="0.2"/>
      <stop offset="100%" stop-color="#00CC66" stop-opacity="0.05"/>
    </linearGradient>
    <filter id="glow">
      <feGaussianBlur stdDeviation="2" result="blur"/>
      <feMerge><feMergeNode in="blur"/><feMergeNode in="SourceGraphic"/></feMerge>
    </filter>
    <filter id="softGlow">
      <feGaussianBlur stdDeviation="3" result="blur"/>
      <feMerge><feMergeNode in="blur"/><feMergeNode in="SourceGraphic"/></feMerge>
    </filter>
  </defs>

  <!-- Background -->
  <rect width="1100" height="500" fill="url(#bgGrad)" rx="8"/>
  <rect x="0.5" y="0.5" width="1099" height="499" fill="none" stroke="#30363d" stroke-width="1" rx="8"/>

  <!-- Title -->
  <text x="550" y="30" text-anchor="middle" fill="#ffffff" font-family="Segoe UI, sans-serif" font-size="16" font-weight="700" letter-spacing="1">SUPER-GOOSE CONSCIOUS</text>
  <text x="550" y="48" text-anchor="middle" fill="#8b949e" font-family="Segoe UI, sans-serif" font-size="11" letter-spacing="2">VOICE INTERFACE FLOW</text>
  <line x1="440" y1="54" x2="660" y2="54" stroke="#30363d" stroke-width="1"/>

  <!-- ==================== SECTION 1: VOICE INPUT (Left) ==================== -->
  <g transform="translate(55, 135)">
    <!-- Mic container -->
    <rect x="-40" y="-45" width="80" height="90" rx="12" fill="url(#pinkGlow)" stroke="#FF3366" stroke-width="1.5" stroke-opacity="0.6"/>
    <!-- Microphone icon -->
    <rect x="-8" y="-28" width="16" height="28" rx="8" fill="none" stroke="#FF3366" stroke-width="2" filter="url(#glow)"/>
    <path d="M-16,0 C-16,14 16,14 16,0" fill="none" stroke="#FF3366" stroke-width="2" filter="url(#glow)"/>
    <line x1="0" y1="14" x2="0" y2="24" stroke="#FF3366" stroke-width="2"/>
    <line x1="-8" y1="24" x2="8" y2="24" stroke="#FF3366" stroke-width="2"/>
    <!-- Sound waves -->
    <path d="M24,-14 C32,-8 32,8 24,14" fill="none" stroke="#FF3366" stroke-width="1.5" opacity="0.9" filter="url(#glow)"/>
    <path d="M30,-20 C42,-12 42,12 30,20" fill="none" stroke="#FF3366" stroke-width="1.5" opacity="0.6" filter="url(#glow)"/>
    <path d="M36,-26 C52,-16 52,16 36,26" fill="none" stroke="#FF3366" stroke-width="1.5" opacity="0.3" filter="url(#glow)"/>
    <!-- Label -->
    <text x="0" y="55" text-anchor="middle" fill="#FF3366" font-family="Segoe UI, sans-serif" font-size="11" font-weight="600">VOICE INPUT</text>
  </g>

  <!-- Arrow: Voice Input → Moshi -->
  <g>
    <line x1="110" y1="135" x2="188" y2="135" stroke="#FF3366" stroke-width="1.5" opacity="0.7" stroke-dasharray="4,3"/>
    <polygon points="188,131 196,135 188,139" fill="#FF3366" opacity="0.7"/>
    <text x="150" y="127" text-anchor="middle" fill="#8b949e" font-family="Segoe UI, sans-serif" font-size="8">STREAM</text>
  </g>

  <!-- ==================== SECTION 2: MOSHI 7B ENGINE (Center-Left) ==================== -->
  <g transform="translate(200, 80)">
    <rect width="180" height="110" rx="8" fill="url(#blueGlow)" stroke="#00BFFF" stroke-width="1.5" stroke-opacity="0.7"/>
    <!-- Header bar -->
    <rect width="180" height="24" rx="8" fill="#00BFFF" fill-opacity="0.15"/>
    <rect y="16" width="180" height="8" fill="#00BFFF" fill-opacity="0.15"/>
    <circle cx="12" cy="12" r="3" fill="#00BFFF" opacity="0.8"/>
    <text x="22" y="16" fill="#00BFFF" font-family="Segoe UI, sans-serif" font-size="11" font-weight="700">MOSHI 7B ENGINE</text>
    <!-- Specs -->
    <text x="14" y="42" fill="#e6edf3" font-family="Consolas, monospace" font-size="9">Latency</text>
    <text x="120" y="42" fill="#00BFFF" font-family="Consolas, monospace" font-size="9" font-weight="700">&lt;200ms</text>
    <line x1="14" y1="48" x2="166" y2="48" stroke="#30363d" stroke-width="0.5"/>
    <text x="14" y="60" fill="#e6edf3" font-family="Consolas, monospace" font-size="9">Mode</text>
    <text x="120" y="60" fill="#00BFFF" font-family="Consolas, monospace" font-size="9" font-weight="700">Speech2Speech</text>
    <line x1="14" y1="66" x2="166" y2="66" stroke="#30363d" stroke-width="0.5"/>
    <text x="14" y="78" fill="#e6edf3" font-family="Consolas, monospace" font-size="9">Transcription</text>
    <text x="120" y="78" fill="#FF3366" font-family="Consolas, monospace" font-size="9" font-weight="700">NONE</text>
    <line x1="14" y1="84" x2="166" y2="84" stroke="#30363d" stroke-width="0.5"/>
    <text x="14" y="96" fill="#e6edf3" font-family="Consolas, monospace" font-size="9">Full-duplex</text>
    <text x="120" y="96" fill="#00CC66" font-family="Consolas, monospace" font-size="9" font-weight="700">YES</text>
  </g>

  <!-- Arrow: Moshi → Emotion Detection -->
  <g>
    <line x1="380" y1="115" x2="380" y2="225" stroke="#9966FF" stroke-width="1.5" opacity="0.5" stroke-dasharray="4,3"/>
    <polygon points="376,225 380,233 384,225" fill="#9966FF" opacity="0.7"/>
    <text x="396" y="180" fill="#8b949e" font-family="Segoe UI, sans-serif" font-size="8" transform="rotate(90,396,180)">ANALYZE</text>
  </g>

  <!-- Arrow: Moshi → Intent Router -->
  <g>
    <line x1="380" y1="135" x2="490" y2="135" stroke="#00BFFF" stroke-width="1.5" opacity="0.7" stroke-dasharray="4,3"/>
    <polygon points="490,131 498,135 490,139" fill="#00BFFF" opacity="0.7"/>
    <text x="435" y="127" text-anchor="middle" fill="#8b949e" font-family="Segoe UI, sans-serif" font-size="8">INTENT</text>
  </g>

  <!-- ==================== SECTION 3: EMOTION DETECTION (Bottom-Center) ==================== -->
  <g transform="translate(270, 237)">
    <rect width="220" height="105" rx="8" fill="url(#purpleGlow)" stroke="#9966FF" stroke-width="1.5" stroke-opacity="0.6"/>
    <!-- Header -->
    <rect width="220" height="22" rx="8" fill="#9966FF" fill-opacity="0.15"/>
    <rect y="14" width="220" height="8" fill="#9966FF" fill-opacity="0.15"/>
    <text x="14" y="15" fill="#9966FF" font-family="Segoe UI, sans-serif" font-size="10" font-weight="700">WAV2VEC2 EMOTION DETECTION</text>
    <!-- Emotion dots row 1 -->
    <circle cx="28" cy="42" r="6" fill="#FFD700"/><text x="28" y="56" text-anchor="middle" fill="#c9d1d9" font-family="Segoe UI, sans-serif" font-size="7">Happy</text>
    <circle cx="78" cy="42" r="6" fill="#4169E1"/><text x="78" y="56" text-anchor="middle" fill="#c9d1d9" font-family="Segoe UI, sans-serif" font-size="7">Sad</text>
    <circle cx="128" cy="42" r="6" fill="#DC143C"/><text x="128" y="56" text-anchor="middle" fill="#c9d1d9" font-family="Segoe UI, sans-serif" font-size="7">Angry</text>
    <circle cx="178" cy="42" r="6" fill="#FF6600"/><text x="178" y="56" text-anchor="middle" fill="#c9d1d9" font-family="Segoe UI, sans-serif" font-size="7">Fear</text>
    <!-- Emotion dots row 2 -->
    <circle cx="28" cy="76" r="6" fill="#00FFAA"/><text x="28" y="90" text-anchor="middle" fill="#c9d1d9" font-family="Segoe UI, sans-serif" font-size="7">Surprise</text>
    <circle cx="78" cy="76" r="6" fill="#8B4513"/><text x="78" y="90" text-anchor="middle" fill="#c9d1d9" font-family="Segoe UI, sans-serif" font-size="7">Disgust</text>
    <circle cx="128" cy="76" r="6" fill="#808080"/><text x="128" y="90" text-anchor="middle" fill="#c9d1d9" font-family="Segoe UI, sans-serif" font-size="7">Neutral</text>
    <circle cx="185" cy="76" r="6" fill="#9966FF"/><text x="185" y="90" text-anchor="middle" fill="#c9d1d9" font-family="Segoe UI, sans-serif" font-size="7">Contempt</text>
  </g>

  <!-- ==================== SECTION 4: INTENT ROUTER ==================== -->
  <g transform="translate(500, 80)">
    <rect width="160" height="110" rx="8" fill="#161b22" stroke="#00BFFF" stroke-width="1.5" stroke-opacity="0.5"/>
    <!-- Header -->
    <rect width="160" height="22" rx="8" fill="#00BFFF" fill-opacity="0.12"/>
    <rect y="14" width="160" height="8" fill="#00BFFF" fill-opacity="0.12"/>
    <text x="80" y="15" text-anchor="middle" fill="#00BFFF" font-family="Segoe UI, sans-serif" font-size="10" font-weight="700">INTENT ROUTER</text>

    <!-- CHAT path -->
    <rect x="10" y="32" width="60" height="30" rx="5" fill="#00CC66" fill-opacity="0.12" stroke="#00CC66" stroke-width="1" stroke-opacity="0.5"/>
    <text x="40" y="44" text-anchor="middle" fill="#00CC66" font-family="Segoe UI, sans-serif" font-size="8" font-weight="700">CHAT</text>
    <text x="40" y="56" text-anchor="middle" fill="#8b949e" font-family="Segoe UI, sans-serif" font-size="7">Converse</text>

    <!-- ACTION path -->
    <rect x="85" y="32" width="65" height="30" rx="5" fill="#FF3366" fill-opacity="0.12" stroke="#FF3366" stroke-width="1" stroke-opacity="0.5"/>
    <text x="117" y="44" text-anchor="middle" fill="#FF3366" font-family="Segoe UI, sans-serif" font-size="8" font-weight="700">ACTION</text>
    <text x="117" y="56" text-anchor="middle" fill="#8b949e" font-family="Segoe UI, sans-serif" font-size="7">Execute</text>

    <!-- Divider -->
    <line x1="10" y1="72" x2="150" y2="72" stroke="#30363d" stroke-width="0.5"/>

    <!-- Sub-labels -->
    <text x="40" y="86" text-anchor="middle" fill="#c9d1d9" font-family="Segoe UI, sans-serif" font-size="8">Conversational</text>
    <text x="40" y="96" text-anchor="middle" fill="#c9d1d9" font-family="Segoe UI, sans-serif" font-size="8">Response</text>

    <text x="117" y="86" text-anchor="middle" fill="#c9d1d9" font-family="Segoe UI, sans-serif" font-size="8">GooseBridge</text>
    <text x="117" y="96" text-anchor="middle" fill="#8b949e" font-family="Segoe UI, sans-serif" font-size="7">16-Tool Platform</text>
  </g>

  <!-- Arrow: CHAT path → Voice Output -->
  <g>
    <path d="M580,120 C620,120 640,100 680,100 L770,100" fill="none" stroke="#00CC66" stroke-width="1.5" opacity="0.6" stroke-dasharray="4,3"/>
    <polygon points="770,96 778,100 770,104" fill="#00CC66" opacity="0.7"/>
    <text x="700" y="92" text-anchor="middle" fill="#00CC66" font-family="Segoe UI, sans-serif" font-size="7" font-weight="600">CHAT</text>
  </g>

  <!-- Arrow: ACTION path → GooseBridge block -->
  <g>
    <path d="M660,155 L680,155 L680,175 L700,175" fill="none" stroke="#FF3366" stroke-width="1.5" opacity="0.6" stroke-dasharray="4,3"/>
    <polygon points="700,171 708,175 700,179" fill="#FF3366" opacity="0.7"/>
  </g>

  <!-- ==================== GooseBridge Block ==================== -->
  <g transform="translate(710, 145)">
    <rect width="140" height="60" rx="6" fill="#161b22" stroke="#FF3366" stroke-width="1" stroke-opacity="0.5"/>
    <rect width="140" height="18" rx="6" fill="#FF3366" fill-opacity="0.12"/>
    <rect y="12" width="140" height="6" fill="#FF3366" fill-opacity="0.12"/>
    <text x="70" y="13" text-anchor="middle" fill="#FF3366" font-family="Segoe UI, sans-serif" font-size="9" font-weight="700">GOOSE BRIDGE</text>
    <!-- Tool icons as small blocks -->
    <g transform="translate(8, 24)">
      <rect x="0" y="0" width="14" height="10" rx="2" fill="#00BFFF" fill-opacity="0.3" stroke="#00BFFF" stroke-width="0.5" stroke-opacity="0.4"/>
      <rect x="16" y="0" width="14" height="10" rx="2" fill="#00BFFF" fill-opacity="0.3" stroke="#00BFFF" stroke-width="0.5" stroke-opacity="0.4"/>
      <rect x="32" y="0" width="14" height="10" rx="2" fill="#00BFFF" fill-opacity="0.3" stroke="#00BFFF" stroke-width="0.5" stroke-opacity="0.4"/>
      <rect x="48" y="0" width="14" height="10" rx="2" fill="#00BFFF" fill-opacity="0.3" stroke="#00BFFF" stroke-width="0.5" stroke-opacity="0.4"/>
      <rect x="64" y="0" width="14" height="10" rx="2" fill="#00CC66" fill-opacity="0.3" stroke="#00CC66" stroke-width="0.5" stroke-opacity="0.4"/>
      <rect x="80" y="0" width="14" height="10" rx="2" fill="#00CC66" fill-opacity="0.3" stroke="#00CC66" stroke-width="0.5" stroke-opacity="0.4"/>
      <rect x="96" y="0" width="14" height="10" rx="2" fill="#00CC66" fill-opacity="0.3" stroke="#00CC66" stroke-width="0.5" stroke-opacity="0.4"/>
      <rect x="112" y="0" width="14" height="10" rx="2" fill="#9966FF" fill-opacity="0.3" stroke="#9966FF" stroke-width="0.5" stroke-opacity="0.4"/>
      <!-- Row 2 -->
      <rect x="0" y="14" width="14" height="10" rx="2" fill="#9966FF" fill-opacity="0.3" stroke="#9966FF" stroke-width="0.5" stroke-opacity="0.4"/>
      <rect x="16" y="14" width="14" height="10" rx="2" fill="#9966FF" fill-opacity="0.3" stroke="#9966FF" stroke-width="0.5" stroke-opacity="0.4"/>
      <rect x="32" y="14" width="14" height="10" rx="2" fill="#FFD700" fill-opacity="0.3" stroke="#FFD700" stroke-width="0.5" stroke-opacity="0.4"/>
      <rect x="48" y="14" width="14" height="10" rx="2" fill="#FFD700" fill-opacity="0.3" stroke="#FFD700" stroke-width="0.5" stroke-opacity="0.4"/>
      <rect x="64" y="14" width="14" height="10" rx="2" fill="#FFD700" fill-opacity="0.3" stroke="#FFD700" stroke-width="0.5" stroke-opacity="0.4"/>
      <rect x="80" y="14" width="14" height="10" rx="2" fill="#FF3366" fill-opacity="0.3" stroke="#FF3366" stroke-width="0.5" stroke-opacity="0.4"/>
      <rect x="96" y="14" width="14" height="10" rx="2" fill="#FF3366" fill-opacity="0.3" stroke="#FF3366" stroke-width="0.5" stroke-opacity="0.4"/>
      <rect x="112" y="14" width="14" height="10" rx="2" fill="#FF3366" fill-opacity="0.3" stroke="#FF3366" stroke-width="0.5" stroke-opacity="0.4"/>
    </g>
  </g>

  <!-- Arrow: GooseBridge → Voice Output -->
  <g>
    <path d="M850,175 L880,175 L880,130 L920,130" fill="none" stroke="#00CC66" stroke-width="1.5" opacity="0.6" stroke-dasharray="4,3"/>
    <polygon points="920,126 928,130 920,134" fill="#00CC66" opacity="0.7"/>
    <text x="900" y="148" text-anchor="middle" fill="#FF3366" font-family="Segoe UI, sans-serif" font-size="7" font-weight="600">ACTION</text>
  </g>

  <!-- ==================== SECTION 5: VOICE OUTPUT (Right) ==================== -->
  <g transform="translate(985, 135)">
    <!-- Speaker container -->
    <rect x="-45" y="-50" width="90" height="100" rx="12" fill="url(#greenGlow)" stroke="#00CC66" stroke-width="1.5" stroke-opacity="0.6"/>
    <!-- Speaker icon -->
    <polygon points="-12,-16 -4,-16 8,-26 8,6 -4,-4 -12,-4" fill="none" stroke="#00CC66" stroke-width="2" filter="url(#glow)"/>
    <!-- Sound waves from speaker -->
    <path d="M14,-20 C22,-14 22,0 14,6" fill="none" stroke="#00CC66" stroke-width="1.5" opacity="0.9" filter="url(#glow)"/>
    <path d="M20,-26 C32,-18 32,4 20,12" fill="none" stroke="#00CC66" stroke-width="1.5" opacity="0.6" filter="url(#glow)"/>
    <path d="M26,-32 C42,-22 42,8 26,18" fill="none" stroke="#00CC66" stroke-width="1.5" opacity="0.3" filter="url(#glow)"/>
    <!-- Label -->
    <text x="0" y="60" text-anchor="middle" fill="#00CC66" font-family="Segoe UI, sans-serif" font-size="11" font-weight="600">VOICE OUTPUT</text>
  </g>

  <!-- ==================== SECTION 6: PERSONALITY PROFILES (Bottom) ==================== -->
  <g transform="translate(35, 370)">
    <rect width="1030" height="110" rx="8" fill="#161b22" stroke="#30363d" stroke-width="1"/>
    <!-- Header -->
    <rect width="1030" height="22" rx="8" fill="#30363d" fill-opacity="0.4"/>
    <rect y="14" width="1030" height="8" fill="#30363d" fill-opacity="0.4"/>
    <text x="515" y="15" text-anchor="middle" fill="#e6edf3" font-family="Segoe UI, sans-serif" font-size="10" font-weight="700" letter-spacing="1">13 PERSONALITY PROFILES</text>
    <text x="515" y="15" text-anchor="middle" fill="#e6edf3" font-family="Segoe UI, sans-serif" font-size="10" font-weight="700" letter-spacing="1" opacity="0">.</text>

    <!-- Profile circles -->
    <!-- Profile 1: Commander -->
    <g transform="translate(55, 58)">
      <circle r="18" fill="#1a1e24" stroke="#FF3366" stroke-width="1.5"/>
      <circle r="7" cy="-5" fill="#FF3366" opacity="0.4"/>
      <path d="M-10,8 C-10,2 10,2 10,8" fill="#FF3366" opacity="0.3"/>
      <text y="32" text-anchor="middle" fill="#c9d1d9" font-family="Segoe UI, sans-serif" font-size="7">Commander</text>
    </g>
    <!-- Profile 2: Mentor -->
    <g transform="translate(135, 58)">
      <circle r="18" fill="#1a1e24" stroke="#00BFFF" stroke-width="1.5"/>
      <circle r="7" cy="-5" fill="#00BFFF" opacity="0.4"/>
      <path d="M-10,8 C-10,2 10,2 10,8" fill="#00BFFF" opacity="0.3"/>
      <text y="32" text-anchor="middle" fill="#c9d1d9" font-family="Segoe UI, sans-serif" font-size="7">Mentor</text>
    </g>
    <!-- Profile 3: Analyst -->
    <g transform="translate(215, 58)">
      <circle r="18" fill="#1a1e24" stroke="#00CC66" stroke-width="1.5"/>
      <circle r="7" cy="-5" fill="#00CC66" opacity="0.4"/>
      <path d="M-10,8 C-10,2 10,2 10,8" fill="#00CC66" opacity="0.3"/>
      <text y="32" text-anchor="middle" fill="#c9d1d9" font-family="Segoe UI, sans-serif" font-size="7">Analyst</text>
    </g>
    <!-- Profile 4: Creative -->
    <g transform="translate(295, 58)">
      <circle r="18" fill="#1a1e24" stroke="#9966FF" stroke-width="1.5"/>
      <circle r="7" cy="-5" fill="#9966FF" opacity="0.4"/>
      <path d="M-10,8 C-10,2 10,2 10,8" fill="#9966FF" opacity="0.3"/>
      <text y="32" text-anchor="middle" fill="#c9d1d9" font-family="Segoe UI, sans-serif" font-size="7">Creative</text>
    </g>
    <!-- Profile 5: Diplomat -->
    <g transform="translate(375, 58)">
      <circle r="18" fill="#1a1e24" stroke="#FFD700" stroke-width="1.5"/>
      <circle r="7" cy="-5" fill="#FFD700" opacity="0.4"/>
      <path d="M-10,8 C-10,2 10,2 10,8" fill="#FFD700" opacity="0.3"/>
      <text y="32" text-anchor="middle" fill="#c9d1d9" font-family="Segoe UI, sans-serif" font-size="7">Diplomat</text>
    </g>
    <!-- Profile 6: Guardian -->
    <g transform="translate(455, 58)">
      <circle r="18" fill="#1a1e24" stroke="#FF6600" stroke-width="1.5"/>
      <circle r="7" cy="-5" fill="#FF6600" opacity="0.4"/>
      <path d="M-10,8 C-10,2 10,2 10,8" fill="#FF6600" opacity="0.3"/>
      <text y="32" text-anchor="middle" fill="#c9d1d9" font-family="Segoe UI, sans-serif" font-size="7">Guardian</text>
    </g>
    <!-- Profile 7: Explorer -->
    <g transform="translate(535, 58)">
      <circle r="18" fill="#1a1e24" stroke="#00FFAA" stroke-width="1.5"/>
      <circle r="7" cy="-5" fill="#00FFAA" opacity="0.4"/>
      <path d="M-10,8 C-10,2 10,2 10,8" fill="#00FFAA" opacity="0.3"/>
      <text y="32" text-anchor="middle" fill="#c9d1d9" font-family="Segoe UI, sans-serif" font-size="7">Explorer</text>
    </g>
    <!-- Profile 8: Empath -->
    <g transform="translate(615, 58)">
      <circle r="18" fill="#1a1e24" stroke="#FF69B4" stroke-width="1.5"/>
      <circle r="7" cy="-5" fill="#FF69B4" opacity="0.4"/>
      <path d="M-10,8 C-10,2 10,2 10,8" fill="#FF69B4" opacity="0.3"/>
      <text y="32" text-anchor="middle" fill="#c9d1d9" font-family="Segoe UI, sans-serif" font-size="7">Empath</text>
    </g>
    <!-- Profile 9: Scholar -->
    <g transform="translate(695, 58)">
      <circle r="18" fill="#1a1e24" stroke="#4169E1" stroke-width="1.5"/>
      <circle r="7" cy="-5" fill="#4169E1" opacity="0.4"/>
      <path d="M-10,8 C-10,2 10,2 10,8" fill="#4169E1" opacity="0.3"/>
      <text y="32" text-anchor="middle" fill="#c9d1d9" font-family="Segoe UI, sans-serif" font-size="7">Scholar</text>
    </g>
    <!-- Profile 10: Trickster -->
    <g transform="translate(775, 58)">
      <circle r="18" fill="#1a1e24" stroke="#DC143C" stroke-width="1.5"/>
      <circle r="7" cy="-5" fill="#DC143C" opacity="0.4"/>
      <path d="M-10,8 C-10,2 10,2 10,8" fill="#DC143C" opacity="0.3"/>
      <text y="32" text-anchor="middle" fill="#c9d1d9" font-family="Segoe UI, sans-serif" font-size="7">Trickster</text>
    </g>
    <!-- Profile 11: Sage -->
    <g transform="translate(855, 58)">
      <circle r="18" fill="#1a1e24" stroke="#8B8B00" stroke-width="1.5"/>
      <circle r="7" cy="-5" fill="#8B8B00" opacity="0.4"/>
      <path d="M-10,8 C-10,2 10,2 10,8" fill="#8B8B00" opacity="0.3"/>
      <text y="32" text-anchor="middle" fill="#c9d1d9" font-family="Segoe UI, sans-serif" font-size="7">Sage</text>
    </g>
    <!-- Profile 12: Rebel -->
    <g transform="translate(935, 58)">
      <circle r="18" fill="#1a1e24" stroke="#FF4500" stroke-width="1.5"/>
      <circle r="7" cy="-5" fill="#FF4500" opacity="0.4"/>
      <path d="M-10,8 C-10,2 10,2 10,8" fill="#FF4500" opacity="0.3"/>
      <text y="32" text-anchor="middle" fill="#c9d1d9" font-family="Segoe UI, sans-serif" font-size="7">Rebel</text>
    </g>
    <!-- Profile 13: Neutral -->
    <g transform="translate(1000, 58)">
      <circle r="14" fill="#1a1e24" stroke="#808080" stroke-width="1"/>
      <circle r="5" cy="-4" fill="#808080" opacity="0.4"/>
      <path d="M-7,5 C-7,1 7,1 7,5" fill="#808080" opacity="0.3"/>
      <text y="28" text-anchor="middle" fill="#8b949e" font-family="Segoe UI, sans-serif" font-size="6">Default</text>
    </g>

    <!-- Sliders indicator -->
    <g transform="translate(55, 88)">
      <rect x="-15" y="-5" width="120" height="12" rx="3" fill="#30363d" fill-opacity="0.5"/>
      <!-- Mini slider bars -->
      <line x1="-10" y1="0" x2="10" y2="0" stroke="#FF3366" stroke-width="1.5" opacity="0.5"/>
      <circle cx="4" cy="0" r="2" fill="#FF3366"/>
      <line x1="14" y1="0" x2="34" y2="0" stroke="#00BFFF" stroke-width="1.5" opacity="0.5"/>
      <circle cx="28" cy="0" r="2" fill="#00BFFF"/>
      <line x1="38" y1="0" x2="58" y2="0" stroke="#9966FF" stroke-width="1.5" opacity="0.5"/>
      <circle cx="48" cy="0" r="2" fill="#9966FF"/>
      <line x1="62" y1="0" x2="82" y2="0" stroke="#00CC66" stroke-width="1.5" opacity="0.5"/>
      <circle cx="72" cy="0" r="2" fill="#00CC66"/>
      <line x1="86" y1="0" x2="100" y2="0" stroke="#FFD700" stroke-width="1.5" opacity="0.5"/>
      <circle cx="95" cy="0" r="2" fill="#FFD700"/>
      <text x="112" y="3" fill="#8b949e" font-family="Segoe UI, sans-serif" font-size="7">20+ sliders per profile</text>
    </g>
  </g>

  <!-- Emotion → Intent feedback arrow -->
  <g>
    <path d="M490,290 C530,290 530,180 530,180" fill="none" stroke="#9966FF" stroke-width="1" opacity="0.4" stroke-dasharray="3,3"/>
    <polygon points="527,182 530,175 533,182" fill="#9966FF" opacity="0.4"/>
    <text x="535" y="240" fill="#9966FF" font-family="Segoe UI, sans-serif" font-size="7" opacity="0.6">EMOTION</text>
    <text x="535" y="250" fill="#9966FF" font-family="Segoe UI, sans-serif" font-size="7" opacity="0.6">CONTEXT</text>
  </g>

  <!-- Bottom label: 16-Tool Platform annotation -->
  <g transform="translate(710, 218)">
    <text x="70" y="0" text-anchor="middle" fill="#8b949e" font-family="Segoe UI, sans-serif" font-size="7">ResourceCoordinator</text>
    <text x="70" y="10" text-anchor="middle" fill="#8b949e" font-family="Segoe UI, sans-serif" font-size="7">16 Tool Bridges</text>
  </g>

  <!-- Personality → Moshi feedback -->
  <g>
    <path d="M135,370 L135,350 L290,350 L290,195" fill="none" stroke="#30363d" stroke-width="1" opacity="0.5" stroke-dasharray="3,3"/>
    <polygon points="287,197 290,190 293,197" fill="#30363d" opacity="0.5"/>
    <text x="210" y="346" text-anchor="middle" fill="#8b949e" font-family="Segoe UI, sans-serif" font-size="7">PERSONA VOICE</text>
  </g>

</svg>