<svg xmlns="http://www.w3.org/2000/svg" viewBox="0 0 1000 1000" width="1000" height="1000">
<defs>
<radialGradient id="bgGrad" cx="50%" cy="50%" r="55%"><stop offset="0%" stop-color="#161b22"/><stop offset="100%" stop-color="#0d1117"/></radialGradient>
<filter id="glowBlue" x="-40%" y="-40%" width="180%" height="180%"><feGaussianBlur stdDeviation="6" result="blur"/><feFlood flood-color="#00BFFF" flood-opacity="0.35" result="color"/><feComposite in="color" in2="blur" operator="in" result="glow"/><feMerge><feMergeNode in="glow"/><feMergeNode in="SourceGraphic"/></feMerge></filter>
<filter id="glowPurple" x="-40%" y="-40%" width="180%" height="180%"><feGaussianBlur stdDeviation="6" result="blur"/><feFlood flood-color="#9966FF" flood-opacity="0.35" result="color"/><feComposite in="color" in2="blur" operator="in" result="glow"/><feMerge><feMergeNode in="glow"/><feMergeNode in="SourceGraphic"/></feMerge></filter>
<filter id="glowOrange" x="-40%" y="-40%" width="180%" height="180%"><feGaussianBlur stdDeviation="6" result="blur"/><feFlood flood-color="#FF9900" flood-opacity="0.35" result="color"/><feComposite in="color" in2="blur" operator="in" result="glow"/><feMerge><feMergeNode in="glow"/><feMergeNode in="SourceGraphic"/></feMerge></filter>
<filter id="glowGreen" x="-40%" y="-40%" width="180%" height="180%"><feGaussianBlur stdDeviation="6" result="blur"/><feFlood flood-color="#00CC66" flood-opacity="0.35" result="color"/><feComposite in="color" in2="blur" operator="in" result="glow"/><feMerge><feMergeNode in="glow"/><feMergeNode in="SourceGraphic"/></feMerge></filter>
<filter id="glowPink" x="-40%" y="-40%" width="180%" height="180%"><feGaussianBlur stdDeviation="6" result="blur"/><feFlood flood-color="#FF3366" flood-opacity="0.35" result="color"/><feComposite in="color" in2="blur" operator="in" result="glow"/><feMerge><feMergeNode in="glow"/><feMergeNode in="SourceGraphic"/></feMerge></filter>
<filter id="glowCenter" x="-50%" y="-50%" width="200%" height="200%"><feGaussianBlur stdDeviation="12" result="blur"/><feFlood flood-color="#FF6600" flood-opacity="0.5" result="color"/><feComposite in="color" in2="blur" operator="in" result="glow"/><feMerge><feMergeNode in="glow"/><feMergeNode in="SourceGraphic"/></feMerge></filter>
<filter id="lineGlow" x="-20%" y="-20%" width="140%" height="140%"><feGaussianBlur stdDeviation="2.5" result="blur"/><feMerge><feMergeNode in="blur"/><feMergeNode in="SourceGraphic"/></feMerge></filter>
<radialGradient id="ringGrad" cx="50%" cy="50%" r="50%"><stop offset="85%" stop-color="transparent"/><stop offset="92%" stop-color="#FF660012"/><stop offset="100%" stop-color="transparent"/></radialGradient>
<linearGradient id="nodeBlue" x1="0%" y1="0%" x2="0%" y2="100%"><stop offset="0%" stop-color="#00BFFF" stop-opacity="0.18"/><stop offset="100%" stop-color="#00BFFF" stop-opacity="0.06"/></linearGradient>
<linearGradient id="nodePurple" x1="0%" y1="0%" x2="0%" y2="100%"><stop offset="0%" stop-color="#9966FF" stop-opacity="0.18"/><stop offset="100%" stop-color="#9966FF" stop-opacity="0.06"/></linearGradient>
<linearGradient id="nodeOrange" x1="0%" y1="0%" x2="0%" y2="100%"><stop offset="0%" stop-color="#FF9900" stop-opacity="0.18"/><stop offset="100%" stop-color="#FF9900" stop-opacity="0.06"/></linearGradient>
<linearGradient id="nodeGreen" x1="0%" y1="0%" x2="0%" y2="100%"><stop offset="0%" stop-color="#00CC66" stop-opacity="0.18"/><stop offset="100%" stop-color="#00CC66" stop-opacity="0.06"/></linearGradient>
<linearGradient id="nodePink" x1="0%" y1="0%" x2="0%" y2="100%"><stop offset="0%" stop-color="#FF3366" stop-opacity="0.18"/><stop offset="100%" stop-color="#FF3366" stop-opacity="0.06"/></linearGradient>
<radialGradient id="centerGrad" cx="50%" cy="50%" r="50%"><stop offset="0%" stop-color="#FF6600" stop-opacity="0.25"/><stop offset="70%" stop-color="#FF6600" stop-opacity="0.10"/><stop offset="100%" stop-color="#FF6600" stop-opacity="0.03"/></radialGradient>
</defs>
<rect width="1000" height="1000" fill="url(#bgGrad)"/>
<circle cx="500" cy="500" r="420" fill="none" stroke="#FF660008" stroke-width="1"/>
<circle cx="500" cy="500" r="400" fill="none" stroke="#ffffff05" stroke-width="0.5" stroke-dasharray="4 8"/>
<circle cx="500" cy="500" r="200" fill="none" stroke="#ffffff06" stroke-width="0.5" stroke-dasharray="3 6"/>
<circle cx="500" cy="500" r="345" fill="url(#ringGrad)"/>
<line x1="500" y1="500" x2="500" y2="155" stroke="#00BFFF" stroke-opacity="0.13" stroke-width="1" filter="url(#lineGlow)"/>
<line x1="500" y1="500" x2="630" y2="186" stroke="#00BFFF" stroke-opacity="0.13" stroke-width="1" filter="url(#lineGlow)"/>
<line x1="500" y1="500" x2="740" y2="260" stroke="#00BFFF" stroke-opacity="0.13" stroke-width="1" filter="url(#lineGlow)"/>
<line x1="500" y1="500" x2="814" y2="370" stroke="#00BFFF" stroke-opacity="0.13" stroke-width="1" filter="url(#lineGlow)"/>
<line x1="500" y1="500" x2="840" y2="500" stroke="#00BFFF" stroke-opacity="0.13" stroke-width="1" filter="url(#lineGlow)"/>
<line x1="500" y1="500" x2="814" y2="630" stroke="#00BFFF" stroke-opacity="0.13" stroke-width="1" filter="url(#lineGlow)"/>
<line x1="500" y1="500" x2="740" y2="740" stroke="#9966FF" stroke-opacity="0.13" stroke-width="1" filter="url(#lineGlow)"/>
<line x1="500" y1="500" x2="630" y2="814" stroke="#9966FF" stroke-opacity="0.13" stroke-width="1" filter="url(#lineGlow)"/>
<line x1="500" y1="500" x2="500" y2="845" stroke="#9966FF" stroke-opacity="0.13" stroke-width="1" filter="url(#lineGlow)"/>
<line x1="500" y1="500" x2="370" y2="814" stroke="#FF9900" stroke-opacity="0.13" stroke-width="1" filter="url(#lineGlow)"/>
<line x1="500" y1="500" x2="260" y2="740" stroke="#FF9900" stroke-opacity="0.13" stroke-width="1" filter="url(#lineGlow)"/>
<line x1="500" y1="500" x2="186" y2="630" stroke="#00CC66" stroke-opacity="0.13" stroke-width="1" filter="url(#lineGlow)"/>
<line x1="500" y1="500" x2="160" y2="500" stroke="#00CC66" stroke-opacity="0.13" stroke-width="1" filter="url(#lineGlow)"/>
<line x1="500" y1="500" x2="186" y2="370" stroke="#00CC66" stroke-opacity="0.13" stroke-width="1" filter="url(#lineGlow)"/>
<line x1="500" y1="500" x2="260" y2="260" stroke="#FF3366" stroke-opacity="0.13" stroke-width="1" filter="url(#lineGlow)"/>
<line x1="500" y1="500" x2="370" y2="186" stroke="#FF3366" stroke-opacity="0.13" stroke-width="1" filter="url(#lineGlow)"/>
<path id="arcCore" d="M 780,220 A 380,380 0 0,0 160,220" fill="none"/>
<text font-family="Segoe UI, sans-serif" font-size="11" fill="#00BFFF" fill-opacity="0.5" font-weight="600" letter-spacing="3"><textPath href="#arcCore" startOffset="25%" text-anchor="middle">CORE AGENT LAYER</textPath></text>
<path id="arcSelf" d="M 820,700 A 380,380 0 0,0 445,870" fill="none"/>
<text font-family="Segoe UI, sans-serif" font-size="11" fill="#9966FF" fill-opacity="0.5" font-weight="600" letter-spacing="3"><textPath href="#arcSelf" startOffset="30%" text-anchor="middle">SELF-EVOLUTION</textPath></text>
<path id="arcSandbox" d="M 430,880 A 380,380 0 0,0 180,700" fill="none"/>
<text font-family="Segoe UI, sans-serif" font-size="11" fill="#FF9900" fill-opacity="0.5" font-weight="600" letter-spacing="3"><textPath href="#arcSandbox" startOffset="30%" text-anchor="middle">SANDBOX</textPath></text>
<path id="arcGov" d="M 120,660 A 380,380 0 0,0 120,310" fill="none"/>
<text font-family="Segoe UI, sans-serif" font-size="11" fill="#00CC66" fill-opacity="0.5" font-weight="600" letter-spacing="3"><textPath href="#arcGov" startOffset="30%" text-anchor="middle">GOVERNANCE</textPath></text>
<path id="arcQual" d="M 160,290 A 380,380 0 0,0 380,130" fill="none"/>
<text font-family="Segoe UI, sans-serif" font-size="11" fill="#FF3366" fill-opacity="0.5" font-weight="600" letter-spacing="3"><textPath href="#arcQual" startOffset="30%" text-anchor="middle">CODE QUALITY</textPath></text>
<g transform="translate(500, 155)" filter="url(#glowBlue)">
  <rect x="-65" y="-28" width="130" height="56" rx="12" fill="url(#nodeBlue)" stroke="#00BFFF" stroke-width="1.2" stroke-opacity="0.7"/>
  <g transform="translate(-51, -10)"><circle cx="8" cy="8" r="4" fill="none" stroke="#00BFFF" stroke-width="1.5" stroke-opacity="0.8"/><line x1="8" y1="0" x2="8" y2="3" stroke="#00BFFF" stroke-width="1.5" stroke-opacity="0.8"/><line x1="8" y1="13" x2="8" y2="16" stroke="#00BFFF" stroke-width="1.5" stroke-opacity="0.8"/><line x1="0" y1="8" x2="3" y2="8" stroke="#00BFFF" stroke-width="1.5" stroke-opacity="0.8"/><line x1="13" y1="8" x2="16" y2="8" stroke="#00BFFF" stroke-width="1.5" stroke-opacity="0.8"/></g>
  <text x="5" y="-6" font-family="Segoe UI, sans-serif" font-size="13" font-weight="700" fill="#00BFFF" text-anchor="middle">Goose Core</text>
  <text x="5" y="12" font-family="Segoe UI, sans-serif" font-size="9.5" fill="#8b949e" text-anchor="middle">Rust Engine</text>
</g>
<g transform="translate(630, 186)" filter="url(#glowBlue)">
  <rect x="-55" y="-28" width="110" height="56" rx="12" fill="url(#nodeBlue)" stroke="#00BFFF" stroke-width="1.2" stroke-opacity="0.7"/>
  <g transform="translate(-41, -10)"><polyline points="4,0 0,8 4,16" fill="none" stroke="#00BFFF" stroke-width="1.5" stroke-opacity="0.8"/><polyline points="12,0 16,8 12,16" fill="none" stroke="#00BFFF" stroke-width="1.5" stroke-opacity="0.8"/></g>
  <text x="5" y="-6" font-family="Segoe UI, sans-serif" font-size="13" font-weight="700" fill="#00BFFF" text-anchor="middle">Aider</text>
  <text x="5" y="12" font-family="Segoe UI, sans-serif" font-size="9.5" fill="#8b949e" text-anchor="middle">Code Edit</text>
</g>
<g transform="translate(740, 260)" filter="url(#glowBlue)">
  <rect x="-60" y="-28" width="121" height="56" rx="12" fill="url(#nodeBlue)" stroke="#00BFFF" stroke-width="1.2" stroke-opacity="0.7"/>
  <g transform="translate(-46, -10)"><circle cx="8" cy="4" r="3" fill="none" stroke="#00BFFF" stroke-width="1.3" stroke-opacity="0.8"/><circle cx="3" cy="13" r="2.5" fill="none" stroke="#00BFFF" stroke-width="1.3" stroke-opacity="0.8"/><circle cx="13" cy="13" r="2.5" fill="none" stroke="#00BFFF" stroke-width="1.3" stroke-opacity="0.8"/><line x1="7" y1="7" x2="4" y2="11" stroke="#00BFFF" stroke-width="1.3" stroke-opacity="0.8"/><line x1="9" y1="7" x2="12" y2="11" stroke="#00BFFF" stroke-width="1.3" stroke-opacity="0.8"/></g>
  <text x="5" y="-6" font-family="Segoe UI, sans-serif" font-size="13" font-weight="700" fill="#00BFFF" text-anchor="middle">LangGraph</text>
  <text x="5" y="12" font-family="Segoe UI, sans-serif" font-size="9.5" fill="#8b949e" text-anchor="middle">Workflows</text>
</g>
<g transform="translate(814, 370)" filter="url(#glowBlue)">
  <rect x="-60" y="-28" width="121" height="56" rx="12" fill="url(#nodeBlue)" stroke="#00BFFF" stroke-width="1.2" stroke-opacity="0.7"/>
  <g transform="translate(-46, -10)"><rect x="1" y="3" width="14" height="10" rx="1" fill="none" stroke="#00BFFF" stroke-width="1.3" stroke-opacity="0.8"/><line x1="1" y1="7" x2="15" y2="7" stroke="#00BFFF" stroke-width="1.3" stroke-opacity="0.8"/><line x1="8" y1="0" x2="8" y2="3" stroke="#00BFFF" stroke-width="1.3" stroke-opacity="0.8"/></g>
  <text x="5" y="-6" font-family="Segoe UI, sans-serif" font-size="13" font-weight="700" fill="#00BFFF" text-anchor="middle">OpenHands</text>
  <text x="5" y="12" font-family="Segoe UI, sans-serif" font-size="9.5" fill="#8b949e" text-anchor="middle">Sandbox</text>
</g>
<g transform="translate(840, 500)" filter="url(#glowBlue)">
  <rect x="-69" y="-28" width="139" height="56" rx="12" fill="url(#nodeBlue)" stroke="#00BFFF" stroke-width="1.2" stroke-opacity="0.7"/>
  <g transform="translate(-55, -10)"><text x="0" y="13" font-family="monospace" font-size="14" fill="#00BFFF" fill-opacity="0.8">T:</text></g>
  <text x="5" y="-6" font-family="Segoe UI, sans-serif" font-size="12" font-weight="700" fill="#00BFFF" text-anchor="middle">Pydantic-AI</text>
  <text x="5" y="12" font-family="Segoe UI, sans-serif" font-size="9.5" fill="#8b949e" text-anchor="middle">Type Safety</text>
</g>
<g transform="translate(814, 630)" filter="url(#glowBlue)">
  <rect x="-60" y="-28" width="121" height="56" rx="12" fill="url(#nodeBlue)" stroke="#00BFFF" stroke-width="1.2" stroke-opacity="0.7"/>
  <g transform="translate(-46, -10)"><rect x="5" y="1" width="6" height="10" rx="3" fill="none" stroke="#00BFFF" stroke-width="1.3" stroke-opacity="0.8"/><path d="M 3,8 A 5,5 0 0,0 13,8" fill="none" stroke="#00BFFF" stroke-width="1.3" stroke-opacity="0.8"/><line x1="8" y1="13" x2="8" y2="16" stroke="#00BFFF" stroke-width="1.3" stroke-opacity="0.8"/><line x1="5" y1="16" x2="11" y2="16" stroke="#00BFFF" stroke-width="1.3" stroke-opacity="0.8"/></g>
  <text x="5" y="-6" font-family="Segoe UI, sans-serif" font-size="13" font-weight="700" fill="#00BFFF" text-anchor="middle">Conscious</text>
  <text x="5" y="12" font-family="Segoe UI, sans-serif" font-size="9.5" fill="#8b949e" text-anchor="middle">Voice I/O</text>
</g>
<g transform="translate(740, 740)" filter="url(#glowPurple)">
  <rect x="-55" y="-28" width="110" height="56" rx="12" fill="url(#nodePurple)" stroke="#9966FF" stroke-width="1.2" stroke-opacity="0.7"/>
  <g transform="translate(-41, -10)"><ellipse cx="8" cy="7" rx="6" ry="7" fill="none" stroke="#9966FF" stroke-width="1.3" stroke-opacity="0.8"/><path d="M 5,4 Q 8,2 11,4" fill="none" stroke="#9966FF" stroke-width="1.3" stroke-opacity="0.8"/><path d="M 4,7 Q 8,5 12,7" fill="none" stroke="#9966FF" stroke-width="1.3" stroke-opacity="0.8"/><path d="M 5,10 Q 8,8 11,10" fill="none" stroke="#9966FF" stroke-width="1.3" stroke-opacity="0.8"/></g>
  <text x="5" y="-6" font-family="Segoe UI, sans-serif" font-size="13" font-weight="700" fill="#9966FF" text-anchor="middle">DSPy</text>
  <text x="5" y="12" font-family="Segoe UI, sans-serif" font-size="9.5" fill="#8b949e" text-anchor="middle">Prompts</text>
</g>
<g transform="translate(630, 814)" filter="url(#glowPurple)">
  <rect x="-65" y="-28" width="130" height="56" rx="12" fill="url(#nodePurple)" stroke="#9966FF" stroke-width="1.2" stroke-opacity="0.7"/>
  <g transform="translate(-51, -10)"><ellipse cx="8" cy="8" rx="7" ry="4.5" fill="none" stroke="#9966FF" stroke-width="1.3" stroke-opacity="0.8"/><circle cx="8" cy="8" r="2.5" fill="none" stroke="#9966FF" stroke-width="1.3" stroke-opacity="0.8"/><circle cx="8" cy="8" r="1" fill="#9966FF" fill-opacity="0.8"/></g>
  <text x="5" y="-6" font-family="Segoe UI, sans-serif" font-size="13" font-weight="700" fill="#9966FF" text-anchor="middle">Inspect AI</text>
  <text x="5" y="12" font-family="Segoe UI, sans-serif" font-size="9.5" fill="#8b949e" text-anchor="middle">Evaluation</text>
</g>
<g transform="translate(500, 845)" filter="url(#glowPurple)">
  <rect x="-55" y="-28" width="110" height="56" rx="12" fill="url(#nodePurple)" stroke="#9966FF" stroke-width="1.2" stroke-opacity="0.7"/>
  <g transform="translate(-41, -10)"><rect x="3" y="3" width="10" height="10" rx="1" fill="none" stroke="#9966FF" stroke-width="1.3" stroke-opacity="0.8"/><line x1="6" y1="0" x2="6" y2="3" stroke="#9966FF" stroke-width="1.3" stroke-opacity="0.8"/><line x1="10" y1="0" x2="10" y2="3" stroke="#9966FF" stroke-width="1.3" stroke-opacity="0.8"/><line x1="6" y1="13" x2="6" y2="16" stroke="#9966FF" stroke-width="1.3" stroke-opacity="0.8"/><line x1="10" y1="13" x2="10" y2="16" stroke="#9966FF" stroke-width="1.3" stroke-opacity="0.8"/><line x1="0" y1="6" x2="3" y2="6" stroke="#9966FF" stroke-width="1.3" stroke-opacity="0.8"/><line x1="0" y1="10" x2="3" y2="10" stroke="#9966FF" stroke-width="1.3" stroke-opacity="0.8"/><line x1="13" y1="6" x2="16" y2="6" stroke="#9966FF" stroke-width="1.3" stroke-opacity="0.8"/><line x1="13" y1="10" x2="16" y2="10" stroke="#9966FF" stroke-width="1.3" stroke-opacity="0.8"/></g>
  <text x="5" y="-6" font-family="Segoe UI, sans-serif" font-size="13" font-weight="700" fill="#9966FF" text-anchor="middle">Mem0</text>
  <text x="5" y="12" font-family="Segoe UI, sans-serif" font-size="9.5" fill="#8b949e" text-anchor="middle">Memory</text>
</g>
<g transform="translate(370, 814)" filter="url(#glowOrange)">
  <rect x="-74" y="-28" width="148" height="56" rx="12" fill="url(#nodeOrange)" stroke="#FF9900" stroke-width="1.2" stroke-opacity="0.7"/>
  <g transform="translate(-60, -10)"><rect x="1" y="2" width="14" height="12" rx="2" fill="none" stroke="#FF9900" stroke-width="1.3" stroke-opacity="0.8"/><line x1="4" y1="6" x2="12" y2="6" stroke="#FF9900" stroke-width="1.3" stroke-opacity="0.8"/><line x1="4" y1="10" x2="12" y2="10" stroke="#FF9900" stroke-width="1.3" stroke-opacity="0.8"/><circle cx="12" cy="6" r="1" fill="#FF9900" fill-opacity="0.8"/><circle cx="12" cy="10" r="1" fill="#FF9900" fill-opacity="0.8"/></g>
  <text x="5" y="-6" font-family="Segoe UI, sans-serif" font-size="12" font-weight="700" fill="#FF9900" text-anchor="middle">microsandbox</text>
  <text x="5" y="12" font-family="Segoe UI, sans-serif" font-size="9.5" fill="#8b949e" text-anchor="middle">MicroVM</text>
</g>
<g transform="translate(260, 740)" filter="url(#glowOrange)">
  <rect x="-55" y="-28" width="110" height="56" rx="12" fill="url(#nodeOrange)" stroke="#FF9900" stroke-width="1.2" stroke-opacity="0.7"/>
  <g transform="translate(-41, -10)"><rect x="1" y="4" width="14" height="10" rx="2" fill="none" stroke="#FF9900" stroke-width="1.3" stroke-opacity="0.8"/><path d="M 5,4 L 6,1 L 10,1 L 11,4" fill="none" stroke="#FF9900" stroke-width="1.3" stroke-opacity="0.8"/><circle cx="8" cy="9" r="3" fill="none" stroke="#FF9900" stroke-width="1.3" stroke-opacity="0.8"/></g>
  <text x="5" y="-6" font-family="Segoe UI, sans-serif" font-size="13" font-weight="700" fill="#FF9900" text-anchor="middle">Arrakis</text>
  <text x="5" y="12" font-family="Segoe UI, sans-serif" font-size="9.5" fill="#8b949e" text-anchor="middle">Snapshots</text>
</g>
<g transform="translate(186, 630)" filter="url(#glowGreen)">
  <rect x="-56" y="-28" width="112" height="56" rx="12" fill="url(#nodeGreen)" stroke="#00CC66" stroke-width="1.2" stroke-opacity="0.7"/>
  <g transform="translate(-42, -10)"><path d="M 1,8 Q 8,1 15,8 Q 8,15 1,8" fill="none" stroke="#00CC66" stroke-width="1.3" stroke-opacity="0.8"/><circle cx="8" cy="8" r="2.5" fill="none" stroke="#00CC66" stroke-width="1.3" stroke-opacity="0.8"/><circle cx="8" cy="8" r="1" fill="#00CC66" fill-opacity="0.8"/></g>
  <text x="5" y="-6" font-family="Segoe UI, sans-serif" font-size="13" font-weight="700" fill="#00CC66" text-anchor="middle">Langfuse</text>
  <text x="5" y="12" font-family="Segoe UI, sans-serif" font-size="9.5" fill="#8b949e" text-anchor="middle">Traces</text>
</g>
<g transform="translate(160, 500)" filter="url(#glowGreen)">
  <rect x="-55" y="-28" width="110" height="56" rx="12" fill="url(#nodeGreen)" stroke="#00CC66" stroke-width="1.2" stroke-opacity="0.7"/>
  <g transform="translate(-41, -10)"><path d="M 8,1 L 15,4 L 15,9 Q 15,14 8,17 Q 1,14 1,9 L 1,4 Z" fill="none" stroke="#00CC66" stroke-width="1.3" stroke-opacity="0.8"/><polyline points="5,9 7.5,11.5 11,6.5" fill="none" stroke="#00CC66" stroke-width="1.5" stroke-opacity="0.8"/></g>
  <text x="5" y="-6" font-family="Segoe UI, sans-serif" font-size="13" font-weight="700" fill="#00CC66" text-anchor="middle">Semgrep</text>
  <text x="5" y="12" font-family="Segoe UI, sans-serif" font-size="9.5" fill="#8b949e" text-anchor="middle">Security</text>
</g>
<g transform="translate(186, 370)" filter="url(#glowGreen)">
  <rect x="-56" y="-28" width="112" height="56" rx="12" fill="url(#nodeGreen)" stroke="#00CC66" stroke-width="1.2" stroke-opacity="0.7"/>
  <g transform="translate(-42, -10)"><circle cx="4" cy="4" r="2" fill="none" stroke="#00CC66" stroke-width="1.3" stroke-opacity="0.8"/><circle cx="12" cy="4" r="2" fill="none" stroke="#00CC66" stroke-width="1.3" stroke-opacity="0.8"/><circle cx="4" cy="14" r="2" fill="none" stroke="#00CC66" stroke-width="1.3" stroke-opacity="0.8"/><line x1="4" y1="6" x2="4" y2="12" stroke="#00CC66" stroke-width="1.3" stroke-opacity="0.8"/><path d="M 12,6 L 12,9 Q 12,12 9,12 L 6,12" fill="none" stroke="#00CC66" stroke-width="1.3" stroke-opacity="0.8"/></g>
  <text x="5" y="-6" font-family="Segoe UI, sans-serif" font-size="13" font-weight="700" fill="#00CC66" text-anchor="middle">PR-Agent</text>
  <text x="5" y="12" font-family="Segoe UI, sans-serif" font-size="9.5" fill="#8b949e" text-anchor="middle">Reviews</text>
</g>
<g transform="translate(260, 260)" filter="url(#glowPink)">
  <rect x="-56" y="-28" width="112" height="56" rx="12" fill="url(#nodePink)" stroke="#FF3366" stroke-width="1.2" stroke-opacity="0.7"/>
  <g transform="translate(-42, -10)"><circle cx="8" cy="2" r="2" fill="none" stroke="#FF3366" stroke-width="1.3" stroke-opacity="0.8"/><circle cx="3" cy="13" r="2" fill="none" stroke="#FF3366" stroke-width="1.3" stroke-opacity="0.8"/><circle cx="13" cy="13" r="2" fill="none" stroke="#FF3366" stroke-width="1.3" stroke-opacity="0.8"/><line x1="7" y1="4" x2="4" y2="11" stroke="#FF3366" stroke-width="1.3" stroke-opacity="0.8"/><line x1="9" y1="4" x2="12" y2="11" stroke="#FF3366" stroke-width="1.3" stroke-opacity="0.8"/></g>
  <text x="5" y="-6" font-family="Segoe UI, sans-serif" font-size="13" font-weight="700" fill="#FF3366" text-anchor="middle">ast-grep</text>
  <text x="5" y="12" font-family="Segoe UI, sans-serif" font-size="9.5" fill="#8b949e" text-anchor="middle">AST Edit</text>
</g>
<g transform="translate(370, 186)" filter="url(#glowPink)">
  <rect x="-60" y="-28" width="121" height="56" rx="12" fill="url(#nodePink)" stroke="#FF3366" stroke-width="1.2" stroke-opacity="0.7"/>
  <g transform="translate(-46, -10)"><path d="M 5,1 L 5,7 L 1,15 L 15,15 L 11,7 L 11,1" fill="none" stroke="#FF3366" stroke-width="1.3" stroke-opacity="0.8"/><line x1="4" y1="1" x2="12" y2="1" stroke="#FF3366" stroke-width="1.3" stroke-opacity="0.8"/><line x1="3" y1="11" x2="13" y2="11" stroke="#FF3366" stroke-width="1.3" stroke-opacity="0.8" stroke-dasharray="2 1.5"/></g>
  <text x="5" y="-6" font-family="Segoe UI, sans-serif" font-size="13" font-weight="700" fill="#FF3366" text-anchor="middle">CrossHair</text>
  <text x="5" y="12" font-family="Segoe UI, sans-serif" font-size="9.5" fill="#8b949e" text-anchor="middle">Verify</text>
</g>
<g filter="url(#glowCenter)">
  <circle cx="500" cy="500" r="95" fill="url(#centerGrad)" stroke="#FF6600" stroke-width="2" stroke-opacity="0.5"/>
  <g transform="translate(500, 468)">
    <ellipse cx="0" cy="12" rx="22" ry="16" fill="#FF6600" fill-opacity="0.15" stroke="#FF6600" stroke-width="1.5" stroke-opacity="0.6"/>
    <path d="M -5,0 Q -12,-25 -6,-38 Q -2,-44 4,-40 Q 8,-36 5,-28 Q 2,-18 5,0" fill="#FF6600" fill-opacity="0.15" stroke="#FF6600" stroke-width="1.5" stroke-opacity="0.6"/>
    <path d="M -6,-38 L -16,-35 L -6,-33" fill="#FF6600" fill-opacity="0.4" stroke="#FF6600" stroke-width="1" stroke-opacity="0.7"/>
    <circle cx="-3" cy="-34" r="1.5" fill="#FF6600" fill-opacity="0.9"/>
    <path d="M 5,5 Q 18,0 20,12 Q 18,18 8,16" fill="none" stroke="#FF6600" stroke-width="1" stroke-opacity="0.4"/>
  </g>
  <text x="500" y="508" font-family="Segoe UI, sans-serif" font-size="18" font-weight="800" fill="#FF6600" text-anchor="middle" letter-spacing="3">SUPER-GOOSE</text>
  <text x="500" y="530" font-family="Segoe UI, sans-serif" font-size="11" fill="#8b949e" text-anchor="middle" letter-spacing="1.5">Rust Core</text>
  <circle cx="500" cy="500" r="78" fill="none" stroke="#FF6600" stroke-width="0.5" stroke-opacity="0.2" stroke-dasharray="3 5"/>
</g>
<g transform="translate(30, 920)">
  <rect x="0" y="0" width="940" height="50" rx="10" fill="#161b22" fill-opacity="0.8" stroke="#30363d" stroke-width="0.5"/>
  <circle cx="30" cy="20" r="5" fill="#00BFFF" fill-opacity="0.3" stroke="#00BFFF" stroke-width="1"/>
  <text x="42" y="16" font-family="Segoe UI, sans-serif" font-size="10" font-weight="600" fill="#00BFFF">Core Agent Layer</text>
  <text x="42" y="30" font-family="Segoe UI, sans-serif" font-size="9" fill="#6e7681">6 tools</text>
  <circle cx="200" cy="20" r="5" fill="#9966FF" fill-opacity="0.3" stroke="#9966FF" stroke-width="1"/>
  <text x="212" y="16" font-family="Segoe UI, sans-serif" font-size="10" font-weight="600" fill="#9966FF">Self-Evolution</text>
  <text x="212" y="30" font-family="Segoe UI, sans-serif" font-size="9" fill="#6e7681">3 tools</text>
  <circle cx="370" cy="20" r="5" fill="#FF9900" fill-opacity="0.3" stroke="#FF9900" stroke-width="1"/>
  <text x="382" y="16" font-family="Segoe UI, sans-serif" font-size="10" font-weight="600" fill="#FF9900">Sandbox &amp; Execution</text>
  <text x="382" y="30" font-family="Segoe UI, sans-serif" font-size="9" fill="#6e7681">2 tools</text>
  <circle cx="570" cy="20" r="5" fill="#00CC66" fill-opacity="0.3" stroke="#00CC66" stroke-width="1"/>
  <text x="582" y="16" font-family="Segoe UI, sans-serif" font-size="10" font-weight="600" fill="#00CC66">Governance</text>
  <text x="582" y="30" font-family="Segoe UI, sans-serif" font-size="9" fill="#6e7681">3 tools</text>
  <circle cx="730" cy="20" r="5" fill="#FF3366" fill-opacity="0.3" stroke="#FF3366" stroke-width="1"/>
  <text x="742" y="16" font-family="Segoe UI, sans-serif" font-size="10" font-weight="600" fill="#FF3366">Code Quality</text>
  <text x="742" y="30" font-family="Segoe UI, sans-serif" font-size="9" fill="#6e7681">2 tools</text>
  <text x="900" y="16" font-family="Segoe UI, sans-serif" font-size="11" font-weight="700" fill="#c9d1d9" text-anchor="middle">16</text>
  <text x="900" y="30" font-family="Segoe UI, sans-serif" font-size="9" fill="#6e7681" text-anchor="middle">Total</text>
</g>
<text x="500" y="42" font-family="Segoe UI, sans-serif" font-size="15" font-weight="600" fill="#c9d1d9" text-anchor="middle" letter-spacing="4" fill-opacity="0.6">INTEGRATED TOOL ECOSYSTEM</text>
<text x="500" y="62" font-family="Segoe UI, sans-serif" font-size="9" fill="#484f58" text-anchor="middle" letter-spacing="2">ResourceCoordinator v1 -- Stage 6</text>
</svg>