<svg xmlns="http://www.w3.org/2000/svg" viewBox="0 0 1200 400" width="1200" height="400">
  <defs>
    <linearGradient id="bgGrad" x1="0%" y1="0%" x2="100%" y2="100%">
      <stop offset="0%" stop-color="#0d1117"/>
      <stop offset="40%" stop-color="#111820"/>
      <stop offset="100%" stop-color="#161b22"/>
    </linearGradient>
    <linearGradient id="auroraGrad" x1="0%" y1="0%" x2="100%" y2="0%">
      <stop offset="0%" stop-color="#00BFFF" stop-opacity="0"/>
      <stop offset="15%" stop-color="#00BFFF" stop-opacity="0.08"/>
      <stop offset="30%" stop-color="#9966FF" stop-opacity="0.12"/>
      <stop offset="50%" stop-color="#FF6600" stop-opacity="0.15"/>
      <stop offset="70%" stop-color="#FF3366" stop-opacity="0.10"/>
      <stop offset="85%" stop-color="#00CC66" stop-opacity="0.08"/>
      <stop offset="100%" stop-color="#00CC66" stop-opacity="0"/>
    </linearGradient>
    <linearGradient id="gooseGrad" x1="0%" y1="0%" x2="100%" y2="100%">
      <stop offset="0%" stop-color="#FF8833"/>
      <stop offset="50%" stop-color="#FF6600"/>
      <stop offset="100%" stop-color="#CC5200"/>
    </linearGradient>
    <radialGradient id="gooseGlow" cx="50%" cy="50%" r="60%">
      <stop offset="0%" stop-color="#FF6600" stop-opacity="0.3"/>
      <stop offset="50%" stop-color="#FF6600" stop-opacity="0.1"/>
      <stop offset="100%" stop-color="#FF6600" stop-opacity="0"/>
    </radialGradient>
    <filter id="orangeGlow" x="-50%" y="-50%" width="200%" height="200%">
      <feGaussianBlur in="SourceGraphic" stdDeviation="8" result="blur"/>
      <feColorMatrix in="blur" type="matrix" values="1 0 0 0 0  0.4 0 0 0 0  0 0 0 0 0  0 0 0 0.6 0" result="orangeBlur"/>
      <feMerge><feMergeNode in="orangeBlur"/><feMergeNode in="SourceGraphic"/></feMerge>
    </filter>
    <filter id="textGlow" x="-20%" y="-20%" width="140%" height="140%">
      <feGaussianBlur in="SourceGraphic" stdDeviation="2" result="blur"/>
      <feMerge><feMergeNode in="blur"/><feMergeNode in="SourceGraphic"/></feMerge>
    </filter>
    <filter id="dotGlow" x="-100%" y="-100%" width="300%" height="300%">
      <feGaussianBlur stdDeviation="3" result="blur"/>
      <feMerge><feMergeNode in="blur"/><feMergeNode in="SourceGraphic"/></feMerge>
    </filter>
    <filter id="nodeGlow" x="-100%" y="-100%" width="300%" height="300%">
      <feGaussianBlur stdDeviation="4" result="blur"/>
      <feMerge><feMergeNode in="blur"/><feMergeNode in="SourceGraphic"/></feMerge>
    </filter>
    <filter id="ambientGlow" x="-50%" y="-50%" width="200%" height="200%">
      <feGaussianBlur stdDeviation="25" result="blur"/>
      <feColorMatrix in="blur" type="matrix" values="1 0.4 0 0 0  0.4 0.2 0 0 0  0 0 0 0 0  0 0 0 0.25 0"/>
    </filter>
    <pattern id="circuitPattern" x="0" y="0" width="60" height="60" patternUnits="userSpaceOnUse">
      <rect width="60" height="60" fill="none"/>
      <circle cx="0" cy="0" r="1" fill="#21262d"/><circle cx="60" cy="0" r="1" fill="#21262d"/>
      <circle cx="0" cy="60" r="1" fill="#21262d"/><circle cx="60" cy="60" r="1" fill="#21262d"/>
      <circle cx="30" cy="30" r="0.8" fill="#21262d"/>
    </pattern>
  </defs>
  <!-- BACKGROUND -->
  <rect width="1200" height="400" fill="url(#bgGrad)" rx="12"/>
  <rect width="1200" height="400" fill="url(#circuitPattern)" opacity="0.5" rx="12"/>

  <!-- CIRCUIT LINES -->
  <g stroke="#21262d" stroke-width="1" fill="none" opacity="0.7">
    <line x1="0" y1="80" x2="180" y2="80"/><line x1="160" y1="80" x2="160" y2="140"/>
    <line x1="160" y1="140" x2="260" y2="140"/><line x1="0" y1="200" x2="100" y2="200"/>
    <line x1="100" y1="200" x2="100" y2="260"/><line x1="0" y1="320" x2="150" y2="320"/>
    <line x1="150" y1="320" x2="150" y2="360"/><line x1="150" y1="360" x2="220" y2="360"/>
    <line x1="1020" y1="60" x2="1200" y2="60"/><line x1="1020" y1="60" x2="1020" y2="120"/>
    <line x1="1020" y1="120" x2="1080" y2="120"/><line x1="1050" y1="200" x2="1200" y2="200"/>
    <line x1="1050" y1="200" x2="1050" y2="250"/><line x1="1100" y1="300" x2="1200" y2="300"/>
    <line x1="1100" y1="300" x2="1100" y2="340"/><line x1="1100" y1="340" x2="1160" y2="340"/>
    <line x1="940" y1="340" x2="1000" y2="340"/><line x1="1000" y1="340" x2="1000" y2="380"/>
  </g>
  <g stroke="#30363d" stroke-width="0.5" fill="none" opacity="0.5">
    <line x1="50" y1="40" x2="50" y2="100"/><line x1="50" y1="100" x2="120" y2="100"/>
    <line x1="80" y1="280" x2="80" y2="350"/><line x1="80" y1="350" x2="130" y2="350"/>
    <line x1="1130" y1="80" x2="1130" y2="160"/><line x1="1130" y1="160" x2="1180" y2="160"/>
    <line x1="1070" y1="260" x2="1150" y2="260"/><line x1="1150" y1="260" x2="1150" y2="290"/>
  </g>
  <g fill="#30363d">
    <rect x="157" y="77" width="6" height="6" rx="1"/><rect x="97" y="197" width="6" height="6" rx="1"/>
    <rect x="147" y="317" width="6" height="6" rx="1"/><rect x="1017" y="57" width="6" height="6" rx="1"/>
    <rect x="1047" y="197" width="6" height="6" rx="1"/><rect x="1097" y="297" width="6" height="6" rx="1"/>
    <rect x="47" y="37" width="4" height="4" rx="1"/><rect x="77" y="277" width="4" height="4" rx="1"/>
    <rect x="1127" y="77" width="4" height="4" rx="1"/><rect x="997" y="337" width="4" height="4" rx="1"/>
  </g>

  <!-- AURORA GLOW -->
  <rect x="0" y="0" width="1200" height="120" fill="url(#auroraGrad)" rx="12"/>
  <path d="M0,0 Q200,40 400,15 Q600,0 800,25 Q1000,45 1200,10 L1200,0 Z" fill="url(#auroraGrad)" opacity="0.5"/>
  <ellipse cx="280" cy="200" rx="200" ry="160" filter="url(#ambientGlow)" fill="#FF6600" opacity="0.4"/>
  <!-- GEOMETRIC GOOSE -->
  <g transform="translate(130, 55)" filter="url(#orangeGlow)">
    <path d="M 120,240 L 80,220 L 60,180 L 50,140 L 55,100 L 70,75 L 90,60 L 110,55 L 130,58 L 155,70 L 175,50 L 185,30 L 190,10 L 200,0 L 215,5 L 218,20 L 210,50 L 200,75 L 195,95 L 200,120 L 210,150 L 220,180 L 230,210 L 235,235 L 225,255 L 200,265 L 170,270 L 140,265 Z" fill="url(#gooseGrad)" stroke="#FF8833" stroke-width="1.5" stroke-linejoin="round"/>
    <circle cx="195" cy="18" r="5" fill="#0d1117"/>
    <circle cx="196" cy="16" r="2" fill="#FF9944" opacity="0.8"/>
    <path d="M 200,0 L 230,-5 L 225,8 L 215,5 Z" fill="#FFAA44" stroke="#FF8833" stroke-width="1"/>
    <path d="M 90,120 L 110,100 L 140,110 L 170,130 L 185,160 L 180,190 L 160,200 L 130,195 L 100,170 Z" fill="#CC5200" stroke="#FF6600" stroke-width="0.5" opacity="0.6"/>
    <line x1="110" y1="100" x2="140" y2="170" stroke="#FF8833" stroke-width="0.5" opacity="0.4"/>
    <line x1="140" y1="110" x2="160" y2="180" stroke="#FF8833" stroke-width="0.5" opacity="0.4"/>
    <line x1="170" y1="130" x2="170" y2="195" stroke="#FF8833" stroke-width="0.5" opacity="0.4"/>
    <polygon points="130,140 140,135 150,140 150,150 140,155 130,150" fill="none" stroke="#FF9944" stroke-width="0.8" opacity="0.5"/>
    <circle cx="140" cy="145" r="2" fill="#FF9944" opacity="0.5"/>
    <polygon points="100,160 108,155 108,165" fill="#FF8833" opacity="0.3"/>
    <polygon points="160,170 168,165 168,175" fill="#FF8833" opacity="0.3"/>
    <polygon points="120,220 128,215 128,225" fill="#FF8833" opacity="0.3"/>
    <g stroke="#FF6600" stroke-width="0.8" opacity="0.3">
      <line x1="60" y1="180" x2="20" y2="180"/><line x1="20" y1="180" x2="20" y2="220"/>
      <line x1="55" y1="100" x2="10" y2="100"/><line x1="10" y1="100" x2="10" y2="130"/>
      <line x1="235" y1="235" x2="270" y2="250"/><line x1="270" y1="250" x2="290" y2="250"/>
      <line x1="230" y1="180" x2="280" y2="180"/><line x1="280" y1="180" x2="280" y2="150"/>
    </g>
    <path d="M 80,220 L 50,240 L 40,260" stroke="#FF6600" stroke-width="2" fill="none" opacity="0.5"/>
    <path d="M 90,230 L 65,255 L 55,275" stroke="#FF6600" stroke-width="1.5" fill="none" opacity="0.4"/>
    <path d="M 100,240 L 80,265 L 75,280" stroke="#FF6600" stroke-width="1" fill="none" opacity="0.3"/>
    <g fill="none" stroke="#FF8833" stroke-width="1.5" opacity="0.5">
      <path d="M 160,270 L 155,290 L 140,295"/><path d="M 155,290 L 155,300"/><path d="M 155,290 L 165,298"/>
      <path d="M 190,265 L 195,285 L 180,290"/><path d="M 195,285 L 195,295"/><path d="M 195,285 L 205,293"/>
    </g>
  </g>
  <ellipse cx="280" cy="200" rx="160" ry="140" fill="url(#gooseGlow)"/>
  <!-- TITLE TEXT -->
  <text x="720" y="175" text-anchor="middle" font-family="'Segoe UI', 'SF Pro Display', 'Helvetica Neue', Arial, sans-serif" font-size="72" font-weight="800" fill="#FFFFFF" filter="url(#textGlow)" letter-spacing="6">SUPER-GOOSE</text>
  <line x1="520" y1="195" x2="920" y2="195" stroke="url(#gooseGrad)" stroke-width="2" opacity="0.6"/>
  <text x="720" y="230" text-anchor="middle" font-family="'Segoe UI', 'SF Pro Display', 'Helvetica Neue', Arial, sans-serif" font-size="18" fill="#8b949e" letter-spacing="3" font-weight="400"><tspan>AI Agent Platform</tspan><tspan fill="#30363d" dx="6">|</tspan><tspan fill="#8b949e" dx="6">16 Integrated Tools</tspan><tspan fill="#30363d" dx="6">|</tspan><tspan fill="#8b949e" dx="6">Self-Evolving</tspan></text>

  <!-- TOOL CATEGORY DOTS -->
  <g filter="url(#dotGlow)"><circle cx="540" cy="275" r="5" fill="#00BFFF"/></g>
  <text x="555" y="279" font-family="'Segoe UI', Arial, sans-serif" font-size="11" fill="#8b949e" font-weight="500">Core</text>
  <g filter="url(#dotGlow)"><circle cx="620" cy="275" r="5" fill="#9966FF"/></g>
  <text x="635" y="279" font-family="'Segoe UI', Arial, sans-serif" font-size="11" fill="#8b949e" font-weight="500">Evolution</text>
  <g filter="url(#dotGlow)"><circle cx="730" cy="275" r="5" fill="#FF9900"/></g>
  <text x="745" y="279" font-family="'Segoe UI', Arial, sans-serif" font-size="11" fill="#8b949e" font-weight="500">Sandbox</text>
  <g filter="url(#dotGlow)"><circle cx="830" cy="275" r="5" fill="#00CC66"/></g>
  <text x="845" y="279" font-family="'Segoe UI', Arial, sans-serif" font-size="11" fill="#8b949e" font-weight="500">Governance</text>
  <g filter="url(#dotGlow)"><circle cx="950" cy="275" r="5" fill="#FF3366"/></g>
  <text x="965" y="279" font-family="'Segoe UI', Arial, sans-serif" font-size="11" fill="#8b949e" font-weight="500">Quality</text>

  <!-- SCATTERED NODES -->
  <g filter="url(#nodeGlow)" opacity="0.6">
    <circle cx="480" cy="90" r="3" fill="#00BFFF"/><circle cx="1140" cy="150" r="2" fill="#00BFFF"/>
    <circle cx="520" cy="350" r="2.5" fill="#00BFFF"/><circle cx="650" cy="60" r="2.5" fill="#9966FF"/>
    <circle cx="1050" cy="100" r="3" fill="#9966FF"/><circle cx="900" cy="350" r="2" fill="#9966FF"/>
    <circle cx="800" cy="50" r="2" fill="#FF9900"/><circle cx="450" cy="320" r="3" fill="#FF9900"/>
    <circle cx="1100" cy="230" r="2.5" fill="#FF9900"/><circle cx="560" cy="45" r="2" fill="#00CC66"/>
    <circle cx="980" cy="80" r="2.5" fill="#00CC66"/><circle cx="700" cy="360" r="2" fill="#00CC66"/>
    <circle cx="750" cy="75" r="2.5" fill="#FF3366"/><circle cx="1170" cy="190" r="2" fill="#FF3366"/>
    <circle cx="470" cy="370" r="3" fill="#FF3366"/>
  </g>
  <g stroke="#30363d" stroke-width="0.5" opacity="0.3">
    <line x1="480" y1="90" x2="520" y2="90"/><line x1="520" y1="90" x2="560" y2="45"/>
    <line x1="650" y1="60" x2="750" y2="75"/><line x1="750" y1="75" x2="800" y2="50"/>
    <line x1="980" y1="80" x2="1050" y2="100"/><line x1="1050" y1="100" x2="1140" y2="150"/>
    <line x1="520" y1="350" x2="450" y2="320"/><line x1="700" y1="360" x2="900" y2="350"/>
  </g>

  <!-- STATUS BAR -->
  <line x1="100" y1="330" x2="1100" y2="330" stroke="#21262d" stroke-width="1" opacity="0.4"/>
  <g transform="translate(520, 345)">
    <rect x="0" y="0" width="80" height="22" rx="11" fill="#21262d" stroke="#30363d" stroke-width="0.5"/>
    <circle cx="14" cy="11" r="4" fill="#00CC66"/>
    <text x="24" y="15" font-family="'Segoe UI', monospace" font-size="10" fill="#8b949e">CI Green</text>
    <rect x="95" y="0" width="95" height="22" rx="11" fill="#21262d" stroke="#30363d" stroke-width="0.5"/>
    <circle cx="109" cy="11" r="4" fill="#00BFFF"/>
    <text x="119" y="15" font-family="'Segoe UI', monospace" font-size="10" fill="#8b949e">1000+ Tests</text>
    <rect x="205" y="0" width="100" height="22" rx="11" fill="#21262d" stroke="#30363d" stroke-width="0.5"/>
    <circle cx="219" cy="11" r="4" fill="#9966FF"/>
    <text x="229" y="15" font-family="'Segoe UI', monospace" font-size="10" fill="#8b949e">Multi-Plat</text>
  </g>

  <!-- CORNER DECORATIONS -->
  <path d="M 0,40 L 0,12 Q 0,0 12,0 L 40,0" fill="none" stroke="#FF6600" stroke-width="2" opacity="0.3"/>
  <path d="M 1160,0 L 1188,0 Q 1200,0 1200,12 L 1200,40" fill="none" stroke="#00BFFF" stroke-width="2" opacity="0.3"/>
  <path d="M 0,360 L 0,388 Q 0,400 12,400 L 40,400" fill="none" stroke="#00CC66" stroke-width="2" opacity="0.3"/>
  <path d="M 1160,400 L 1188,400 Q 1200,400 1200,388 L 1200,360" fill="none" stroke="#FF3366" stroke-width="2" opacity="0.3"/>
</svg>