<svg xmlns="http://www.w3.org/2000/svg" viewBox="0 0 1000 500" width="1000" height="500">
  <defs>
    <radialGradient id="bgGrad" cx="50%" cy="50%" r="60%">
      <stop offset="0%" stop-color="#151d28"/>
      <stop offset="100%" stop-color="#0d1117"/>
    </radialGradient>
    <filter id="glowBlue" x="-50%" y="-50%" width="200%" height="200%"><feGaussianBlur stdDeviation="4" result="blur"/><feFlood flood-color="#00BFFF" flood-opacity="0.4" result="color"/><feComposite in="color" in2="blur" operator="in" result="glow"/><feMerge><feMergeNode in="glow"/><feMergeNode in="SourceGraphic"/></feMerge></filter>
    <filter id="glowOrange" x="-50%" y="-50%" width="200%" height="200%"><feGaussianBlur stdDeviation="4" result="blur"/><feFlood flood-color="#FF9900" flood-opacity="0.4" result="color"/><feComposite in="color" in2="blur" operator="in" result="glow"/><feMerge><feMergeNode in="glow"/><feMergeNode in="SourceGraphic"/></feMerge></filter>
    <filter id="glowGreen" x="-50%" y="-50%" width="200%" height="200%"><feGaussianBlur stdDeviation="4" result="blur"/><feFlood flood-color="#00CC66" flood-opacity="0.4" result="color"/><feComposite in="color" in2="blur" operator="in" result="glow"/><feMerge><feMergeNode in="glow"/><feMergeNode in="SourceGraphic"/></feMerge></filter>
    <filter id="glowPurple" x="-50%" y="-50%" width="200%" height="200%"><feGaussianBlur stdDeviation="4" result="blur"/><feFlood flood-color="#9966FF" flood-opacity="0.4" result="color"/><feComposite in="color" in2="blur" operator="in" result="glow"/><feMerge><feMergeNode in="glow"/><feMergeNode in="SourceGraphic"/></feMerge></filter>
    <filter id="glowPink" x="-50%" y="-50%" width="200%" height="200%"><feGaussianBlur stdDeviation="4" result="blur"/><feFlood flood-color="#FF3366" flood-opacity="0.4" result="color"/><feComposite in="color" in2="blur" operator="in" result="glow"/><feMerge><feMergeNode in="glow"/><feMergeNode in="SourceGraphic"/></feMerge></filter>
    <filter id="glowMoon" x="-50%" y="-50%" width="200%" height="200%"><feGaussianBlur stdDeviation="8" result="blur"/><feFlood flood-color="#E8E8F0" flood-opacity="0.3" result="color"/><feComposite in="color" in2="blur" operator="in" result="glow"/><feMerge><feMergeNode in="glow"/><feMergeNode in="SourceGraphic"/></feMerge></filter>
    <filter id="starGlow" x="-100%" y="-100%" width="300%" height="300%"><feGaussianBlur stdDeviation="2" result="blur"/><feFlood flood-color="#ffffff" flood-opacity="0.6" result="color"/><feComposite in="color" in2="blur" operator="in" result="glow"/><feMerge><feMergeNode in="glow"/><feMergeNode in="SourceGraphic"/></feMerge></filter>
    <marker id="arrowBlue" markerWidth="10" markerHeight="7" refX="9" refY="3.5" orient="auto" markerUnits="strokeWidth"><polygon points="0 0, 10 3.5, 0 7" fill="#00BFFF" opacity="0.8"/></marker>
    <marker id="arrowOrange" markerWidth="10" markerHeight="7" refX="9" refY="3.5" orient="auto" markerUnits="strokeWidth"><polygon points="0 0, 10 3.5, 0 7" fill="#FF9900" opacity="0.8"/></marker>
    <marker id="arrowGreen" markerWidth="10" markerHeight="7" refX="9" refY="3.5" orient="auto" markerUnits="strokeWidth"><polygon points="0 0, 10 3.5, 0 7" fill="#00CC66" opacity="0.8"/></marker>
    <marker id="arrowPurple" markerWidth="10" markerHeight="7" refX="9" refY="3.5" orient="auto" markerUnits="strokeWidth"><polygon points="0 0, 10 3.5, 0 7" fill="#9966FF" opacity="0.8"/></marker>
    <marker id="arrowCyan" markerWidth="10" markerHeight="7" refX="9" refY="3.5" orient="auto" markerUnits="strokeWidth"><polygon points="0 0, 10 3.5, 0 7" fill="#00BFFF" opacity="0.8"/></marker>
    <marker id="arrowPink" markerWidth="10" markerHeight="7" refX="9" refY="3.5" orient="auto" markerUnits="strokeWidth"><polygon points="0 0, 10 3.5, 0 7" fill="#FF3366" opacity="0.8"/></marker>
    <filter id="cardShadow" x="-10%" y="-10%" width="130%" height="130%"><feDropShadow dx="0" dy="2" stdDeviation="4" flood-color="#000000" flood-opacity="0.5"/></filter>
  </defs>
  <rect width="1000" height="500" fill="url(#bgGrad)"/>
  <defs><pattern id="dots" x="0" y="0" width="20" height="20" patternUnits="userSpaceOnUse"><circle cx="10" cy="10" r="0.5" fill="white"/></pattern></defs>
  <rect width="1000" height="500" fill="url(#dots)" opacity="0.03"/>
  <!-- Connecting Arrows -->
  <path d="M 350,110 C 410,55 510,50 560,95" fill="none" stroke="#00BFFF" stroke-width="2.5" stroke-opacity="0.5" marker-end="url(#arrowBlue)" stroke-dasharray="6,3"/>
  <path d="M 710,160 C 770,200 810,260 790,310" fill="none" stroke="#FF9900" stroke-width="2.5" stroke-opacity="0.5" marker-end="url(#arrowOrange)" stroke-dasharray="6,3"/>
  <path d="M 690,385 C 640,430 560,445 480,415" fill="none" stroke="#00CC66" stroke-width="2.5" stroke-opacity="0.5" marker-end="url(#arrowGreen)" stroke-dasharray="6,3"/>
  <path d="M 330,405 C 270,425 200,415 170,385" fill="none" stroke="#9966FF" stroke-width="2.5" stroke-opacity="0.5" marker-end="url(#arrowPurple)" stroke-dasharray="6,3"/>
  <path d="M 100,290 C 65,240 45,180 70,140" fill="none" stroke="#00BFFF" stroke-width="2.5" stroke-opacity="0.5" marker-end="url(#arrowCyan)" stroke-dasharray="6,3"/>
  <path d="M 195,80 C 215,40 260,28 295,55" fill="none" stroke="#FF3366" stroke-width="2.5" stroke-opacity="0.5" marker-end="url(#arrowPink)" stroke-dasharray="6,3"/>
  <text x="248" y="26" fill="#FF3366" font-family="Segoe UI,Arial,sans-serif" font-size="9" font-weight="600" text-anchor="middle" opacity="0.85">NEXT NIGHT &#x21BB;</text>
  <!-- Center: Moon + Text -->
  <g transform="translate(500,235)">
    <g filter="url(#glowMoon)">
      <circle cx="-8" cy="-28" r="24" fill="#E8E8F0" opacity="0.9"/>
      <circle cx="4" cy="-34" r="20" fill="#151d28"/>
    </g>
    <g filter="url(#starGlow)">
      <polygon points="30,-52 32,-47 37,-45 32,-43 30,-38 28,-43 23,-45 28,-47" fill="white" opacity="0.7" transform="scale(0.6)"/>
      <polygon points="-55,-55 -53,-50 -48,-48 -53,-46 -55,-41 -57,-46 -62,-48 -57,-50" fill="white" opacity="0.5" transform="scale(0.55)"/>
      <polygon points="50,-20 51,-17 54,-16 51,-15 50,-12 49,-15 46,-16 49,-17" fill="white" opacity="0.6" transform="scale(0.7)"/>
      <circle cx="-42" cy="-18" r="1" fill="white" opacity="0.4"/>
      <circle cx="38" cy="-48" r="1.2" fill="white" opacity="0.5"/>
      <circle cx="-32" cy="-52" r="0.8" fill="white" opacity="0.3"/>
      <circle cx="22" cy="-12" r="0.8" fill="white" opacity="0.35"/>
      <circle cx="-48" cy="-38" r="1" fill="white" opacity="0.25"/>
      <circle cx="52" cy="-38" r="0.6" fill="white" opacity="0.4"/>
      <circle cx="15" cy="-55" r="0.7" fill="white" opacity="0.3"/>
      <circle cx="-20" cy="-60" r="0.9" fill="white" opacity="0.35"/>
    </g>
    <text x="0" y="18" fill="white" font-family="Segoe UI,Arial,sans-serif" font-size="15" font-weight="700" text-anchor="middle" letter-spacing="1">Runs Every Night</text>
    <text x="0" y="36" fill="#8b949e" font-family="Segoe UI,Arial,sans-serif" font-size="11" text-anchor="middle" font-style="italic">While You Sleep</text>
  </g>
  <!-- Stage 1: LOAD -->
  <g transform="translate(235,58)" filter="url(#cardShadow)">
    <rect x="0" y="0" width="135" height="82" rx="8" ry="8" fill="#161b22" stroke="#21262d" stroke-width="1"/>
    <rect x="0" y="0" width="135" height="3" rx="2" ry="2" fill="#00BFFF"/>
    <g transform="translate(14,16)" filter="url(#glowBlue)">
      <rect x="2" y="5" width="16" height="20" rx="2" fill="none" stroke="#00BFFF" stroke-width="1.5" opacity="0.45"/>
      <rect x="5" y="2" width="16" height="20" rx="2" fill="#161b22" stroke="#00BFFF" stroke-width="1.5"/>
      <line x1="9" y1="7" x2="18" y2="7" stroke="#00BFFF" stroke-width="1" opacity="0.6"/>
      <line x1="9" y1="11" x2="18" y2="11" stroke="#00BFFF" stroke-width="1" opacity="0.6"/>
      <line x1="9" y1="15" x2="15" y2="15" stroke="#00BFFF" stroke-width="1" opacity="0.6"/>
      <path d="M13,18 L13,24 M10,22 L13,25 L16,22" stroke="#00BFFF" stroke-width="1.2" fill="none" opacity="0.8"/>
    </g>
    <text x="42" y="24" fill="#00BFFF" font-family="Segoe UI,Arial,sans-serif" font-size="8" font-weight="600" opacity="0.6">STAGE 1</text>
    <text x="42" y="39" fill="white" font-family="Segoe UI,Arial,sans-serif" font-size="14" font-weight="700">LOAD</text>
    <text x="10" y="62" fill="#8b949e" font-family="Segoe UI,Arial,sans-serif" font-size="9">50 SWE-bench Tasks</text>
  </g>
  <!-- Stage 2: EXECUTE -->
  <g transform="translate(565,72)" filter="url(#cardShadow)">
    <rect x="0" y="0" width="150" height="82" rx="8" ry="8" fill="#161b22" stroke="#21262d" stroke-width="1"/>
    <rect x="0" y="0" width="150" height="3" rx="2" ry="2" fill="#FF9900"/>
    <g transform="translate(14,15)" filter="url(#glowOrange)">
      <path d="M12,2 C12,2 19,7 19,15 L16,19 L8,19 L5,15 C5,7 12,2 12,2 Z" fill="none" stroke="#FF9900" stroke-width="1.5"/>
      <circle cx="12" cy="11" r="2.5" fill="#FF9900" opacity="0.5"/>
      <path d="M8,19 L9.5,24 L12,21 L14.5,24 L16,19" fill="#FF9900" opacity="0.65"/>
      <path d="M5,13 L2,15 L5,16" fill="none" stroke="#FF9900" stroke-width="1" opacity="0.4"/>
      <path d="M19,13 L22,15 L19,16" fill="none" stroke="#FF9900" stroke-width="1" opacity="0.4"/>
    </g>
    <text x="42" y="24" fill="#FF9900" font-family="Segoe UI,Arial,sans-serif" font-size="8" font-weight="600" opacity="0.6">STAGE 2</text>
    <text x="42" y="39" fill="white" font-family="Segoe UI,Arial,sans-serif" font-size="14" font-weight="700">EXECUTE</text>
    <text x="10" y="62" fill="#8b949e" font-family="Segoe UI,Arial,sans-serif" font-size="9">Run in microsandbox</text>
    <text x="10" y="74" fill="#8b949e" font-family="Segoe UI,Arial,sans-serif" font-size="9">MicroVM</text>
  </g>
  <!-- Stage 3: SCORE -->
  <g transform="translate(680,280)" filter="url(#cardShadow)">
    <rect x="0" y="0" width="150" height="82" rx="8" ry="8" fill="#161b22" stroke="#21262d" stroke-width="1"/>
    <rect x="0" y="0" width="150" height="3" rx="2" ry="2" fill="#00CC66"/>
    <g transform="translate(14,16)" filter="url(#glowGreen)">
      <path d="M2,20 A13,13 0 0,1 24,20" fill="none" stroke="#00CC66" stroke-width="2" stroke-linecap="round"/>
      <line x1="13" y1="20" x2="19" y2="9" stroke="#00CC66" stroke-width="1.8" stroke-linecap="round"/>
      <circle cx="13" cy="20" r="2.5" fill="#00CC66" opacity="0.7"/>
      <line x1="4" y1="15" x2="6" y2="16" stroke="#00CC66" stroke-width="1" opacity="0.4"/>
      <line x1="13" y1="7" x2="13" y2="9" stroke="#00CC66" stroke-width="1" opacity="0.4"/>
      <line x1="22" y1="15" x2="20" y2="16" stroke="#00CC66" stroke-width="1" opacity="0.4"/>
    </g>
    <text x="42" y="24" fill="#00CC66" font-family="Segoe UI,Arial,sans-serif" font-size="8" font-weight="600" opacity="0.6">STAGE 3</text>
    <text x="42" y="39" fill="white" font-family="Segoe UI,Arial,sans-serif" font-size="14" font-weight="700">SCORE</text>
    <text x="10" y="62" fill="#8b949e" font-family="Segoe UI,Arial,sans-serif" font-size="9">Inspect AI Evaluates</text>
    <text x="10" y="74" fill="#8b949e" font-family="Segoe UI,Arial,sans-serif" font-size="9">Each Attempt</text>
  </g>
  <!-- Stage 4: OPTIMIZE -->
  <g transform="translate(390,370)" filter="url(#cardShadow)">
    <rect x="0" y="0" width="155" height="82" rx="8" ry="8" fill="#161b22" stroke="#21262d" stroke-width="1"/>
    <rect x="0" y="0" width="155" height="3" rx="2" ry="2" fill="#9966FF"/>
    <g transform="translate(14,14)" filter="url(#glowPurple)">
      <path d="M8,22 C2,20 0,14 2,10 C3,7 6,5 9,5 C9,2 12,1 14,2 C16,1 19,2 19,5 C22,5 25,7 26,10 C28,14 26,20 20,22" fill="none" stroke="#9966FF" stroke-width="1.5"/>
      <path d="M14,6 C13,9 15,12 13,15 C12,17 14,20 14,22" fill="none" stroke="#9966FF" stroke-width="1" opacity="0.45"/>
      <circle cx="23" cy="20" r="4.5" fill="none" stroke="#9966FF" stroke-width="1.2" opacity="0.6"/>
      <circle cx="23" cy="20" r="1.8" fill="#9966FF" opacity="0.45"/>
    </g>
    <text x="44" y="24" fill="#9966FF" font-family="Segoe UI,Arial,sans-serif" font-size="8" font-weight="600" opacity="0.6">STAGE 4</text>
    <text x="44" y="39" fill="white" font-family="Segoe UI,Arial,sans-serif" font-size="14" font-weight="700">OPTIMIZE</text>
    <text x="10" y="62" fill="#8b949e" font-family="Segoe UI,Arial,sans-serif" font-size="9">DSPy GEPA Finds</text>
    <text x="10" y="74" fill="#8b949e" font-family="Segoe UI,Arial,sans-serif" font-size="9">Better Prompts</text>
  </g>
  <!-- Stage 5: REMEMBER -->
  <g transform="translate(80,300)" filter="url(#cardShadow)">
    <rect x="0" y="0" width="148" height="82" rx="8" ry="8" fill="#161b22" stroke="#21262d" stroke-width="1"/>
    <rect x="0" y="0" width="148" height="3" rx="2" ry="2" fill="#00BFFF"/>
    <g transform="translate(14,16)" filter="url(#glowBlue)">
      <circle cx="5" cy="5" r="3.5" fill="none" stroke="#00BFFF" stroke-width="1.5"/>
      <circle cx="21" cy="4" r="3.5" fill="none" stroke="#00BFFF" stroke-width="1.5"/>
      <circle cx="13" cy="19" r="3.5" fill="none" stroke="#00BFFF" stroke-width="1.5"/>
      <circle cx="23" cy="17" r="2.5" fill="none" stroke="#00BFFF" stroke-width="1.2" opacity="0.55"/>
      <line x1="8" y1="6" x2="18" y2="5" stroke="#00BFFF" stroke-width="1" opacity="0.45"/>
      <line x1="6" y1="8" x2="11" y2="17" stroke="#00BFFF" stroke-width="1" opacity="0.45"/>
      <line x1="15" y1="18" x2="21" y2="16" stroke="#00BFFF" stroke-width="1" opacity="0.45"/>
      <line x1="21" y1="7" x2="22" y2="15" stroke="#00BFFF" stroke-width="1" opacity="0.35"/>
      <circle cx="5" cy="5" r="1.5" fill="#00BFFF" opacity="0.55"/>
      <circle cx="21" cy="4" r="1.5" fill="#00BFFF" opacity="0.55"/>
      <circle cx="13" cy="19" r="1.5" fill="#00BFFF" opacity="0.55"/>
    </g>
    <text x="42" y="24" fill="#00BFFF" font-family="Segoe UI,Arial,sans-serif" font-size="8" font-weight="600" opacity="0.6">STAGE 5</text>
    <text x="42" y="39" fill="white" font-family="Segoe UI,Arial,sans-serif" font-size="14" font-weight="700">REMEMBER</text>
    <text x="10" y="62" fill="#8b949e" font-family="Segoe UI,Arial,sans-serif" font-size="9">Mem0 Stores Success</text>
    <text x="10" y="74" fill="#8b949e" font-family="Segoe UI,Arial,sans-serif" font-size="9">Trajectories</text>
  </g>
  <!-- Stage 6: IMPROVE -->
  <g transform="translate(58,80)" filter="url(#cardShadow)">
    <rect x="0" y="0" width="148" height="82" rx="8" ry="8" fill="#161b22" stroke="#21262d" stroke-width="1"/>
    <rect x="0" y="0" width="148" height="3" rx="2" ry="2" fill="#FF3366"/>
    <g transform="translate(14,16)" filter="url(#glowPink)">
      <line x1="2" y1="24" x2="2" y2="2" stroke="#FF3366" stroke-width="1.2" opacity="0.45"/>
      <line x1="2" y1="24" x2="26" y2="24" stroke="#FF3366" stroke-width="1.2" opacity="0.45"/>
      <polyline points="4,20 9,17 13,15 17,11 21,6 24,3" fill="none" stroke="#FF3366" stroke-width="2" stroke-linecap="round" stroke-linejoin="round"/>
      <polygon points="24,3 21,5 23,7" fill="#FF3366" opacity="0.8"/>
      <circle cx="9" cy="17" r="1.5" fill="#FF3366" opacity="0.55"/>
      <circle cx="13" cy="15" r="1.5" fill="#FF3366" opacity="0.55"/>
      <circle cx="17" cy="11" r="1.5" fill="#FF3366" opacity="0.6"/>
      <circle cx="21" cy="6" r="1.5" fill="#FF3366" opacity="0.75"/>
    </g>
    <text x="42" y="24" fill="#FF3366" font-family="Segoe UI,Arial,sans-serif" font-size="8" font-weight="600" opacity="0.6">STAGE 6</text>
    <text x="42" y="39" fill="white" font-family="Segoe UI,Arial,sans-serif" font-size="14" font-weight="700">IMPROVE</text>
    <text x="10" y="62" fill="#8b949e" font-family="Segoe UI,Arial,sans-serif" font-size="9">Week-over-Week</text>
    <text x="10" y="74" fill="#8b949e" font-family="Segoe UI,Arial,sans-serif" font-size="9">Improvement</text>
  </g>
  <!-- Footer -->
  <text x="500" y="488" fill="#484f58" font-family="Segoe UI,Arial,sans-serif" font-size="10" text-anchor="middle" opacity="0.6">Super-Goose Overnight Gym &#x2014; Autonomous Self-Evolution Cycle</text>
</svg>
